#VRML V2.0 utf8
# 3D model generated by easyeda2kicad.py (https://github.com/uPesy/easyeda2kicad.py)

Shape{
    appearance Appearance {
        material  Material 	{
            diffuseColor 0.25098039215686274 0.25098039215686274 0.25098039215686274
            specularColor 0.12549019607843137 0.12549019607843137 0.12549019607843137
            ambientIntensity 0.251
            transparency 0.0
            shininess 0.5
        }
    }
    geometry IndexedFaceSet {
        ccw TRUE
        solid FALSE
        coord DEF co Coordinate {
            point [
                0.411 -0.3307 0.04, 0.4488 -0.3307 0.04, 0.4503 -0.4736 0.04, 0.4488 -0.2913 0.04, -0.5685 -0.4736 0.04, -0.5685 0.5685 0.04, -0.4488 0.2913 0.04, -0.4488 0.3307 0.04, 0.411 -0.4736 0.04, -0.0374 -0.3307 0.04, -0.0374 -0.4736 0.04, -0.4488 -0.3307 0.04, -0.4488 -0.2913 0.04, -0.3701 -0.2913 0.04, -0.3701 0.2913 0.04, -0.0374 0.3307 0.04, -0.0374 0.5685 0.04, 0.411 0.3307 0.04, 0.411 0.5685 0.04, 0.4488 0.3307 0.04, 0.4503 0.5685 0.04, 0.4488 0.2913 0.04, 0.4806 -0.5112 0.04, 0.4768 -0.5135 0.04, 0.4806 -0.5068 0.04, 0.4768 -0.4736 0.04, 0.4864 -0.4736 0.04, 0.4851 -0.4737 0.04, 0.4806 -0.4749 0.04, 0.4806 -0.4802 0.04, 0.485 -0.4783 0.04, 0.4813 -0.5072 0.04, 0.4898 -0.4777 0.04, 0.4937 -0.4781 0.04, 0.4966 -0.4792 0.04, 0.4994 -0.481 0.04, 0.5017 -0.4836 0.04, 0.5046 -0.4939 0.04, 0.5042 -0.4982 0.04, 0.5031 -0.5016 0.04, 0.4944 -0.509 0.04, 0.4907 -0.5094 0.04, 0.4972 -0.5079 0.04, 0.4997 -0.5063 0.04, 0.5015 -0.5043 0.04, 0.4855 -0.5088 0.04, 0.5034 -0.4867 0.04, 0.5044 -0.4909 0.04, 0.5078 -0.4842 0.04, 0.5055 -0.4805 0.04, 0.5116 -0.4736 0.04, 0.5033 -0.5099 0.04, 0.5062 -0.5067 0.04, 0.5116 -0.5135 0.04, 0.5083 -0.503 0.04, 0.4937 -0.5135 0.04, 0.4963 -0.5132 0.04, 0.5001 -0.5119 0.04, 0.5019 -0.4771 0.04, 0.4982 -0.475 0.04, 0.4938 -0.4737 0.04, 0.5095 -0.4988 0.04, 0.5099 -0.4943 0.04, 0.5093 -0.4887 0.04, 0.4903 -0.5137 0.04, 0.4768 -0.5685 0.04, 0.4888 -0.5135 0.04, 0.4848 -0.5129 0.04, 0.5116 -0.5685 0.04, 0.4914 -0.5137 0.04, -0.5685 -0.5685 0.04, -0.5685 -0.5135 0.04, -0.0374 -0.5685 0.04, -0.0374 -0.5135 0.04, 0.411 -0.5685 0.04, 0.411 -0.5135 0.04, 0.4503 -0.5685 0.04, 0.4503 -0.5135 0.04, 0.5132 -0.5089 0.04, 0.5132 -0.5132 0.04, 0.5334 -0.5132 0.04, 0.5281 -0.5089 0.04, 0.5281 -0.4738 0.04, 0.5334 -0.4738 0.04, 0.5685 -0.4736 0.04, 0.5685 -0.5135 0.04, 0.5685 -0.5685 0.04, 0.4518 -0.5132 0.04, 0.4729 -0.5132 0.04, 0.4518 -0.5089 0.04, 0.4527 -0.4782 0.04, 0.4729 -0.4738 0.04, 0.4527 -0.4738 0.04, 0.4676 -0.4954 0.04, 0.4676 -0.5089 0.04, 0.4537 -0.4954 0.04, 0.4537 -0.4911 0.04, 0.4676 -0.4911 0.04, 0.4676 -0.4782 0.04, 0.4144 -0.5024 0.04, 0.413 -0.4983 0.04, 0.4124 -0.493 0.04, 0.4166 -0.5059 0.04, 0.4199 -0.509 0.04, 0.424 -0.5114 0.04, 0.433 -0.4738 0.04, 0.4273 -0.4744 0.04, 0.4227 -0.4761 0.04, 0.4184 -0.4789 0.04, 0.4184 -0.479 0.04, 0.4156 -0.4821 0.04, 0.4138 -0.4854 0.04, 0.4127 -0.4893 0.04, 0.4285 -0.5128 0.04, 0.4334 -0.5132 0.04, 0.4441 -0.5132 0.04, 0.4441 -0.4738 0.04, 0.3838 -0.5022 0.04, 0.4 -0.5022 0.04, 0.4038 -0.5132 0.04, 0.4095 -0.5132 0.04, 0.3798 -0.5132 0.04, 0.374 -0.5132 0.04, 0.3894 -0.4738 0.04, 0.3947 -0.4738 0.04, 0.4928 -0.4736 0.04, 0.5116 0.5685 0.04, 0.5685 0.5685 0.04, 0.3701 -0.2913 0.04, 0.3701 0.2913 0.04, 0.411 -0.2913 0.04, 0.411 0.2913 0.04, 0.4768 0.5685 0.04, 0.4899 -0.4734 0.04
            ]
        }
        coordIndex [
            0,1,2,-1,2,1,3,-1,4,5,6,-1,6,5,7,-1,0,8,9,-1,9,8,10,-1,9,10,11,-1,11,10,4,-1,11,4,12,-1,12,4,6,-1,12,6,13,-1,13,6,14,-1,7,5,15,-1,15,5,16,-1,15,16,17,-1,17,16,18,-1,17,18,19,-1,19,18,20,-1,19,20,21,-1,22,23,24,-1,24,23,25,-1,25,26,27,-1,27,28,25,-1,25,28,29,-1,25,29,24,-1,24,29,30,-1,24,30,31,-1,31,30,32,-1,31,32,33,-1,33,34,31,-1,31,34,35,-1,31,35,36,-1,37,38,31,-1,31,38,39,-1,40,41,42,-1,42,41,43,-1,39,44,31,-1,31,44,43,-1,31,43,45,-1,45,43,41,-1,36,46,31,-1,31,46,47,-1,31,47,37,-1,48,49,50,-1,51,52,53,-1,53,52,54,-1,55,56,53,-1,53,56,57,-1,53,57,51,-1,49,58,50,-1,50,58,59,-1,50,59,60,-1,54,61,53,-1,53,61,62,-1,53,62,50,-1,50,62,63,-1,50,63,48,-1,64,65,66,-1,66,65,23,-1,66,23,67,-1,67,23,22,-1,53,68,55,-1,55,68,65,-1,55,65,69,-1,69,65,64,-1,70,71,72,-1,72,71,73,-1,72,73,74,-1,74,73,75,-1,74,75,76,-1,76,75,77,-1,76,77,65,-1,50,78,53,-1,53,78,79,-1,53,79,80,-1,81,78,82,-1,82,78,50,-1,82,50,83,-1,83,50,84,-1,83,84,80,-1,80,84,85,-1,80,85,53,-1,53,85,86,-1,53,86,68,-1,77,87,88,-1,87,77,89,-1,89,77,2,-1,89,2,90,-1,65,77,23,-1,23,77,88,-1,23,88,25,-1,25,88,91,-1,25,91,2,-1,2,91,92,-1,2,92,90,-1,93,94,95,-1,95,94,89,-1,95,89,96,-1,96,89,90,-1,96,90,97,-1,97,90,98,-1,99,75,100,-1,100,75,101,-1,99,102,75,-1,75,102,103,-1,75,103,104,-1,0,2,8,-1,8,2,105,-1,8,105,106,-1,106,107,8,-1,8,107,108,-1,8,108,109,-1,109,110,8,-1,8,110,111,-1,8,111,112,-1,104,113,75,-1,75,113,114,-1,75,114,77,-1,77,114,115,-1,77,115,2,-1,2,115,116,-1,2,116,105,-1,117,118,119,-1,119,120,75,-1,75,120,8,-1,75,8,101,-1,101,8,112,-1,117,119,121,-1,121,119,75,-1,121,75,122,-1,122,75,73,-1,122,73,123,-1,71,4,73,-1,73,4,10,-1,73,10,123,-1,123,10,8,-1,123,8,124,-1,124,8,120,-1,60,125,50,-1,50,125,126,-1,50,126,84,-1,84,126,127,-1,128,129,130,-1,130,129,131,-1,130,131,3,-1,3,131,21,-1,3,21,2,-1,2,21,20,-1,2,20,25,-1,25,20,132,-1,25,132,26,-1,26,132,126,-1,26,126,133,-1,133,126,125,-1,
        ]
    }
}
Shape{
    appearance Appearance {
        material  Material 	{
            diffuseColor 0.7529411764705882 0.7529411764705882 0.7529411764705882
            specularColor 0.3764705882352941 0.3764705882352941 0.3764705882352941
            ambientIntensity 0.7529
            transparency 0.0
            shininess 0.5
        }
    }
    geometry IndexedFaceSet {
        ccw TRUE
        solid FALSE
        coord DEF co Coordinate {
            point [
                0.3701 -0.2913 0.04, 0.3701 -0.2913 0.0, 0.3701 0.2913 0.04, 0.3701 0.2913 0.0, -0.3701 0.2913 0.04, -0.3701 0.2913 0.0, -0.3701 -0.2913 0.04, -0.3701 -0.2913 0.0
            ]
        }
        coordIndex [
            0,1,2,-1,2,1,3,-1,4,5,6,-1,6,5,7,-1,
        ]
    }
}
Shape{
    appearance Appearance {
        material  Material 	{
            diffuseColor 0.25098039215686274 0.25098039215686274 0.25098039215686274
            specularColor 0.12549019607843137 0.12549019607843137 0.12549019607843137
            ambientIntensity 0.251
            transparency 0.0
            shininess 0.5
        }
    }
    geometry IndexedFaceSet {
        ccw TRUE
        solid FALSE
        coord DEF co Coordinate {
            point [
                -0.0433 0.5854 0.2677, -0.0433 0.5906 0.2093, -0.1535 0.5906 0.2093, -0.2402 0.5906 0.2093, -0.3504 0.5906 0.2093, -0.2402 0.5854 0.2677, -0.3504 0.5854 0.2677, 0.5827 0.5906 0.2093, 0.437 0.5906 0.2093, 0.5685 0.5764 0.3714, 0.437 0.5854 0.2677, 0.3504 0.5854 0.2677, 0.3504 0.5906 0.2093, 0.2402 0.5906 0.2093, 0.2402 0.5854 0.2677, 0.1535 0.5854 0.2677, -0.1535 0.5854 0.2677, 0.0433 0.5854 0.2677, 0.0433 0.5906 0.2093, 0.1535 0.5906 0.2093, -0.437 0.5906 0.2093, -0.5827 0.5906 0.2093, -0.437 0.5854 0.2677, -0.5685 0.5764 0.3714, -0.5685 0.5764 0.0472, -0.3504 0.5895 0.1969, -0.2402 0.5895 0.1969, -0.437 0.5895 0.1969, 0.5685 0.5764 0.0472, -0.1535 0.5895 0.1969, 0.0433 0.5895 0.1969, 0.1535 0.5895 0.1969, 0.2402 0.5895 0.1969, -0.0433 0.5895 0.1969, 0.437 0.5895 0.1969, 0.3504 0.5895 0.1969, -0.5685 -0.5764 0.3714, -0.5827 -0.5906 0.2093, -0.437 -0.5906 0.2093, 0.1535 -0.5854 0.2677, 0.2402 -0.5854 0.2677, 0.5685 -0.5764 0.3714, -0.3504 -0.5906 0.2093, -0.2402 -0.5906 0.2093, -0.3504 -0.5854 0.2677, -0.2402 -0.5854 0.2677, -0.437 -0.5854 0.2677, -0.1535 -0.5854 0.2677, 0.0433 -0.5854 0.2677, 0.0433 -0.5906 0.2093, 0.1535 -0.5906 0.2093, -0.0433 -0.5854 0.2677, -0.0433 -0.5906 0.2093, -0.1535 -0.5906 0.2093, 0.437 -0.5906 0.2093, 0.5827 -0.5906 0.2093, 0.437 -0.5854 0.2677, 0.3504 -0.5854 0.2677, 0.3504 -0.5906 0.2093, 0.2402 -0.5906 0.2093, 0.5685 -0.5764 0.0472, 0.437 -0.5895 0.1969, 0.3504 -0.5895 0.1969, -0.0433 -0.5895 0.1969, 0.2402 -0.5895 0.1969, 0.1535 -0.5895 0.1969, 0.0433 -0.5895 0.1969, -0.1535 -0.5895 0.1969, -0.2402 -0.5895 0.1969, -0.3504 -0.5895 0.1969, -0.437 -0.5895 0.1969, -0.5685 -0.5764 0.0472, 0.5906 -0.5827 0.2093, 0.5906 0.5827 0.2093, 0.5764 -0.5685 0.3714, 0.5764 0.5685 0.3714, -0.5906 0.5827 0.2093, -0.5906 -0.5827 0.2093, -0.5764 0.5685 0.3714, -0.5764 -0.5685 0.3714, -0.3452 -0.3622 0.3786, -0.3473 -0.3783 0.3786, 0.5685 -0.5685 0.3786, -0.3535 -0.3932 0.3786, -0.3634 -0.4061 0.3786, -0.4233 -0.4222 0.3786, -0.4383 -0.416 0.3786, -0.5685 -0.5685 0.3786, 0.5685 0.5685 0.3786, -0.3634 -0.3183 0.3786, -0.3535 -0.3311 0.3786, -0.3762 -0.416 0.3786, -0.3912 -0.4222 0.3786, -0.4073 -0.4243 0.3786, -0.4233 -0.3022 0.3786, -0.5685 0.5685 0.3786, -0.4383 -0.3084 0.3786, -0.4512 -0.3183 0.3786, -0.4512 -0.4061 0.3786, -0.4611 -0.3932 0.3786, -0.4673 -0.3783 0.3786, -0.4694 -0.3622 0.3786, -0.4673 -0.3461 0.3786, -0.4611 -0.3311 0.3786, -0.3473 -0.3461 0.3786, -0.4073 -0.3001 0.3786, -0.3912 -0.3022 0.3786, -0.3762 -0.3084 0.3786, 0.5764 -0.5685 0.0472, 0.5764 0.5685 0.0472, -0.5764 0.5685 0.0472, -0.5764 -0.5685 0.0472
            ]
        }
        coordIndex [
            0,1,2,-1,3,4,5,-1,5,4,6,-1,7,8,9,-1,9,8,10,-1,9,10,11,-1,12,13,11,-1,11,13,14,-1,11,14,9,-1,9,14,15,-1,2,16,0,-1,0,16,9,-1,0,9,17,-1,17,9,15,-1,17,15,18,-1,18,15,19,-1,20,21,22,-1,22,21,23,-1,22,23,6,-1,6,23,9,-1,6,9,5,-1,5,9,16,-1,24,21,20,-1,4,3,25,-1,25,3,26,-1,20,27,24,-1,24,27,25,-1,24,25,28,-1,28,25,26,-1,28,26,29,-1,30,18,19,-1,31,32,28,-1,19,31,30,-1,30,31,28,-1,30,28,33,-1,33,28,29,-1,33,29,1,-1,1,29,2,-1,8,7,34,-1,34,7,28,-1,34,28,35,-1,35,28,32,-1,35,32,12,-1,12,32,13,-1,36,37,38,-1,39,40,41,-1,42,43,44,-1,44,43,45,-1,38,46,36,-1,36,46,44,-1,36,44,41,-1,41,44,45,-1,41,45,47,-1,48,49,50,-1,50,39,48,-1,48,39,41,-1,48,41,51,-1,51,41,47,-1,51,47,52,-1,52,47,53,-1,54,55,56,-1,56,55,41,-1,56,41,57,-1,57,41,40,-1,57,40,58,-1,58,40,59,-1,55,54,60,-1,60,54,61,-1,60,61,62,-1,63,52,53,-1,58,59,62,-1,62,59,64,-1,62,64,60,-1,60,64,65,-1,50,49,65,-1,65,49,66,-1,65,66,60,-1,60,66,63,-1,60,63,67,-1,67,63,53,-1,43,42,68,-1,68,42,69,-1,38,37,70,-1,70,37,71,-1,70,71,69,-1,69,71,60,-1,69,60,68,-1,68,60,67,-1,72,73,74,-1,74,73,75,-1,76,77,78,-1,78,77,79,-1,80,81,82,-1,82,81,83,-1,82,83,84,-1,85,86,87,-1,88,89,90,-1,84,91,82,-1,82,91,92,-1,82,92,87,-1,87,92,93,-1,87,93,85,-1,94,95,96,-1,96,95,97,-1,86,98,87,-1,87,98,99,-1,87,99,100,-1,100,101,87,-1,87,101,102,-1,87,102,95,-1,95,102,103,-1,95,103,97,-1,88,90,82,-1,82,90,104,-1,82,104,80,-1,94,105,95,-1,95,105,106,-1,95,106,88,-1,88,106,107,-1,88,107,89,-1,108,109,72,-1,72,109,73,-1,110,111,76,-1,76,111,77,-1,
        ]
    }
}
Shape{
    appearance Appearance {
        material  Material 	{
            diffuseColor 0.0 0.0 0.0
            specularColor 0.0 0.0 0.0
            ambientIntensity 0.0
            transparency 0.0
            shininess 0.5
        }
    }
    geometry IndexedFaceSet {
        ccw TRUE
        solid FALSE
        coord DEF co Coordinate {
            point [
                -0.3452 -0.3622 0.3782, -0.3452 -0.3622 0.3786, -0.3473 -0.3461 0.3782, -0.3473 -0.3461 0.3786, -0.3535 -0.3311 0.3782, -0.3535 -0.3311 0.3786, -0.3634 -0.3183 0.3782, -0.3634 -0.3183 0.3786, -0.3762 -0.3084 0.3782, -0.3762 -0.3084 0.3786, -0.3912 -0.3022 0.3782, -0.3912 -0.3022 0.3786, -0.4073 -0.3001 0.3782, -0.4073 -0.3001 0.3786, -0.4233 -0.3022 0.3782, -0.4233 -0.3022 0.3786, -0.4383 -0.3084 0.3782, -0.4383 -0.3084 0.3786, -0.4512 -0.3183 0.3782, -0.4512 -0.3183 0.3786, -0.4611 -0.3311 0.3782, -0.4611 -0.3311 0.3786, -0.4673 -0.3461 0.3782, -0.4673 -0.3461 0.3786, -0.4694 -0.3622 0.3782, -0.4694 -0.3622 0.3786, -0.4673 -0.3783 0.3782, -0.4673 -0.3783 0.3786, -0.4611 -0.3932 0.3782, -0.4611 -0.3932 0.3786, -0.4512 -0.4061 0.3782, -0.4512 -0.4061 0.3786, -0.4383 -0.416 0.3782, -0.4383 -0.416 0.3786, -0.4233 -0.4222 0.3782, -0.4233 -0.4222 0.3786, -0.4073 -0.4243 0.3782, -0.4073 -0.4243 0.3786, -0.3912 -0.4222 0.3782, -0.3912 -0.4222 0.3786, -0.3762 -0.416 0.3782, -0.3762 -0.416 0.3786, -0.3634 -0.4061 0.3782, -0.3634 -0.4061 0.3786, -0.3535 -0.3932 0.3782, -0.3535 -0.3932 0.3786, -0.3473 -0.3783 0.3782, -0.3473 -0.3783 0.3786, -0.4073 -0.3622 0.3782
            ]
        }
        coordIndex [
            0,1,2,-1,2,1,3,-1,2,3,4,-1,4,3,5,-1,4,5,6,-1,6,5,7,-1,6,7,8,-1,8,7,9,-1,8,9,10,-1,10,9,11,-1,10,11,12,-1,12,11,13,-1,12,13,14,-1,14,13,15,-1,14,15,16,-1,16,15,17,-1,16,17,18,-1,18,17,19,-1,18,19,20,-1,20,19,21,-1,20,21,22,-1,22,21,23,-1,22,23,24,-1,24,23,25,-1,24,25,26,-1,26,25,27,-1,26,27,28,-1,28,27,29,-1,28,29,30,-1,30,29,31,-1,30,31,32,-1,32,31,33,-1,32,33,34,-1,34,33,35,-1,34,35,36,-1,36,35,37,-1,36,37,38,-1,38,37,39,-1,38,39,40,-1,40,39,41,-1,40,41,42,-1,42,41,43,-1,42,43,44,-1,44,43,45,-1,44,45,46,-1,46,45,47,-1,46,47,0,-1,0,47,1,-1,44,46,48,-1,48,46,0,-1,48,0,2,-1,38,40,48,-1,48,40,42,-1,48,42,44,-1,32,34,48,-1,48,34,36,-1,48,36,38,-1,26,28,48,-1,48,28,30,-1,48,30,32,-1,20,22,48,-1,48,22,24,-1,48,24,26,-1,14,16,48,-1,48,16,18,-1,48,18,20,-1,8,10,48,-1,48,10,12,-1,48,12,14,-1,2,4,48,-1,48,4,6,-1,48,6,8,-1,
        ]
    }
}
Shape{
    appearance Appearance {
        material  Material 	{
            diffuseColor 0.25098039215686274 0.25098039215686274 0.25098039215686274
            specularColor 0.12549019607843137 0.12549019607843137 0.12549019607843137
            ambientIntensity 0.251
            transparency 0.0
            shininess 0.5
        }
    }
    geometry IndexedFaceSet {
        ccw TRUE
        solid FALSE
        coord DEF co Coordinate {
            point [
                0.5764 -0.5685 0.3714, 0.5764 0.5685 0.3714, 0.576 -0.5685 0.3732, 0.576 0.5685 0.3732, 0.576 -0.5685 0.3733, 0.576 0.5685 0.3733, 0.5751 -0.5685 0.375, 0.5751 0.5685 0.375, 0.5751 -0.5685 0.375, 0.5751 0.5685 0.375, 0.5739 -0.5685 0.3765, 0.5739 0.5685 0.3765, 0.5738 -0.5685 0.3765, 0.5738 0.5685 0.3765, 0.5723 -0.5685 0.3776, 0.5723 0.5685 0.3776, 0.5723 -0.5685 0.3776, 0.5723 0.5685 0.3776, 0.5705 -0.5685 0.3783, 0.5705 0.5685 0.3783, 0.5705 -0.5685 0.3783, 0.5705 0.5685 0.3783, 0.5685 0.5685 0.3786, 0.5685 -0.5685 0.3786, 0.5685 0.576 0.3733, 0.5685 0.5751 0.375, 0.57 0.575 0.375, 0.5685 0.5751 0.375, 0.5685 0.5739 0.3765, 0.5697 0.5737 0.3765, 0.5694 0.5722 0.3776, 0.569 0.5704 0.3783, 0.5694 0.5703 0.3783, 0.5703 0.5694 0.3783, 0.57 0.5697 0.3783, 0.5704 0.569 0.3783, 0.5685 0.5705 0.3783, 0.5703 0.5761 0.3715, 0.5702 0.5758 0.3732, 0.5705 0.5761 0.3715, 0.5718 0.5752 0.3732, 0.5724 0.5753 0.3716, 0.5732 0.5744 0.3732, 0.5734 0.5746 0.3717, 0.5741 0.5741 0.3717, 0.5744 0.5732 0.3732, 0.5746 0.5734 0.3717, 0.5752 0.5718 0.3732, 0.5753 0.5724 0.3716, 0.5761 0.5705 0.3715, 0.5758 0.5702 0.3732, 0.5761 0.5703 0.3715, 0.5685 0.5738 0.3765, 0.5685 0.5723 0.3776, 0.5685 0.5723 0.3776, 0.5685 0.5705 0.3783, 0.5709 0.5715 0.3776, 0.5715 0.5709 0.3776, 0.5719 0.5702 0.3776, 0.5722 0.5694 0.3776, 0.5702 0.5719 0.3776, 0.5697 0.57 0.3783, 0.5708 0.5733 0.3765, 0.5719 0.5727 0.3765, 0.5727 0.5719 0.3765, 0.5733 0.5708 0.3765, 0.5737 0.5697 0.3765, 0.5714 0.5745 0.375, 0.5726 0.5737 0.375, 0.5737 0.5726 0.375, 0.5745 0.5714 0.375, 0.575 0.57 0.375, 0.5685 0.5764 0.3714, 0.5685 0.576 0.3732, 0.575 -0.57 0.375, 0.5737 -0.5697 0.3765, 0.5722 -0.5694 0.3776, 0.5704 -0.569 0.3783, 0.5703 -0.5694 0.3783, 0.5694 -0.5703 0.3783, 0.5697 -0.57 0.3783, 0.569 -0.5704 0.3783, 0.5761 -0.5703 0.3715, 0.5758 -0.5702 0.3732, 0.5761 -0.5705 0.3715, 0.5752 -0.5718 0.3732, 0.5753 -0.5724 0.3716, 0.5744 -0.5732 0.3732, 0.5746 -0.5734 0.3717, 0.5741 -0.5741 0.3717, 0.5732 -0.5744 0.3732, 0.5734 -0.5746 0.3717, 0.5718 -0.5752 0.3732, 0.5724 -0.5753 0.3716, 0.5705 -0.5761 0.3715, 0.5702 -0.5758 0.3732, 0.5703 -0.5761 0.3715, 0.5685 -0.576 0.3732, 0.5685 -0.5764 0.3714, 0.5685 -0.5705 0.3783, 0.5715 -0.5709 0.3776, 0.5709 -0.5715 0.3776, 0.5702 -0.5719 0.3776, 0.5694 -0.5722 0.3776, 0.5719 -0.5702 0.3776, 0.57 -0.5697 0.3783, 0.5685 -0.5705 0.3783, 0.5685 -0.5723 0.3776, 0.5685 -0.5723 0.3776, 0.5685 -0.5738 0.3765, 0.5733 -0.5708 0.3765, 0.5727 -0.5719 0.3765, 0.5719 -0.5727 0.3765, 0.5708 -0.5733 0.3765, 0.5697 -0.5737 0.3765, 0.5745 -0.5714 0.375, 0.5737 -0.5726 0.375, 0.5726 -0.5737 0.375, 0.5714 -0.5745 0.375, 0.57 -0.575 0.375, 0.5685 -0.5739 0.3765, 0.5685 -0.5751 0.375, 0.5685 -0.5751 0.375, 0.5685 -0.576 0.3733, 0.5827 0.5906 0.2093, 0.5847 0.5903 0.2093, 0.5857 0.59 0.2093, 0.5866 0.5895 0.2093, 0.5875 0.5889 0.2093, 0.5883 0.5883 0.2093, 0.5889 0.5875 0.2093, 0.5895 0.5866 0.2093, 0.59 0.5857 0.2093, 0.5903 0.5847 0.2093, 0.5906 0.5827 0.2093, -0.5685 0.5764 0.3714, -0.5685 0.576 0.3732, -0.5685 0.576 0.3733, -0.5685 0.5751 0.375, -0.5685 0.5751 0.375, -0.5685 0.5739 0.3765, -0.5685 0.5738 0.3765, -0.5685 0.5723 0.3776, -0.5685 0.5723 0.3776, -0.5685 0.5705 0.3783, -0.5685 0.5705 0.3783, -0.5685 0.5685 0.3786, -0.5764 0.5685 0.3714, -0.5764 -0.5685 0.3714, -0.576 0.5685 0.3732, -0.576 -0.5685 0.3732, -0.576 0.5685 0.3733, -0.576 -0.5685 0.3733, -0.5751 0.5685 0.375, -0.5751 -0.5685 0.375, -0.5751 0.5685 0.375, -0.5751 -0.5685 0.375, -0.5739 0.5685 0.3765, -0.5739 -0.5685 0.3765, -0.5738 0.5685 0.3765, -0.5738 -0.5685 0.3765, -0.5723 0.5685 0.3776, -0.5723 -0.5685 0.3776, -0.5723 0.5685 0.3776, -0.5723 -0.5685 0.3776, -0.5705 0.5685 0.3783, -0.5705 -0.5685 0.3783, -0.5705 0.5685 0.3783, -0.5705 -0.5685 0.3783, -0.5685 -0.5685 0.3786, -0.5685 -0.5764 0.3714, -0.5685 -0.576 0.3732, -0.5685 -0.576 0.3733, -0.5685 -0.5751 0.375, -0.5685 -0.5751 0.375, -0.5685 -0.5739 0.3765, -0.5685 -0.5738 0.3765, -0.5685 -0.5723 0.3776, -0.5685 -0.5723 0.3776, -0.5685 -0.5705 0.3783, -0.5685 -0.5705 0.3783, 0.5906 -0.5827 0.2093, 0.5903 -0.5847 0.2093, 0.59 -0.5857 0.2093, 0.5895 -0.5866 0.2093, 0.5889 -0.5875 0.2093, 0.5883 -0.5883 0.2093, 0.5875 -0.5889 0.2093, 0.5866 -0.5895 0.2093, 0.5857 -0.59 0.2093, 0.5847 -0.5903 0.2093, 0.5827 -0.5906 0.2093, 0.5764 0.5685 0.0472, 0.5761 0.5703 0.0471, 0.5761 0.5705 0.047, 0.5753 0.5724 0.0469, 0.5746 0.5734 0.0469, 0.5741 0.5741 0.0469, 0.5734 0.5746 0.0469, 0.5724 0.5753 0.0469, 0.5705 0.5761 0.047, 0.5703 0.5761 0.0471, 0.5685 0.5764 0.0472, -0.575 0.57 0.375, -0.5737 0.5697 0.3765, -0.5722 0.5694 0.3776, -0.5704 0.569 0.3783, -0.5703 0.5694 0.3783, -0.5694 0.5703 0.3783, -0.5697 0.57 0.3783, -0.569 0.5704 0.3783, -0.5761 0.5703 0.3715, -0.5758 0.5702 0.3732, -0.5761 0.5705 0.3715, -0.5752 0.5718 0.3732, -0.5753 0.5724 0.3716, -0.5744 0.5732 0.3732, -0.5746 0.5734 0.3717, -0.5741 0.5741 0.3717, -0.5732 0.5744 0.3732, -0.5734 0.5746 0.3717, -0.5718 0.5752 0.3732, -0.5724 0.5753 0.3716, -0.5705 0.5761 0.3715, -0.5702 0.5758 0.3732, -0.5703 0.5761 0.3715, -0.5715 0.5709 0.3776, -0.5709 0.5715 0.3776, -0.5702 0.5719 0.3776, -0.5694 0.5722 0.3776, -0.5719 0.5702 0.3776, -0.57 0.5697 0.3783, -0.5733 0.5708 0.3765, -0.5727 0.5719 0.3765, -0.5719 0.5727 0.3765, -0.5708 0.5733 0.3765, -0.5697 0.5737 0.3765, -0.5745 0.5714 0.375, -0.5737 0.5726 0.375, -0.5726 0.5737 0.375, -0.5714 0.5745 0.375, -0.57 0.575 0.375, -0.57 -0.575 0.375, -0.5697 -0.5737 0.3765, -0.5694 -0.5722 0.3776, -0.569 -0.5704 0.3783, -0.5694 -0.5703 0.3783, -0.5703 -0.5694 0.3783, -0.57 -0.5697 0.3783, -0.5704 -0.569 0.3783, -0.5703 -0.5761 0.3715, -0.5702 -0.5758 0.3732, -0.5705 -0.5761 0.3715, -0.5718 -0.5752 0.3732, -0.5724 -0.5753 0.3716, -0.5732 -0.5744 0.3732, -0.5734 -0.5746 0.3717, -0.5741 -0.5741 0.3717, -0.5744 -0.5732 0.3732, -0.5746 -0.5734 0.3717, -0.5752 -0.5718 0.3732, -0.5753 -0.5724 0.3716, -0.5761 -0.5705 0.3715, -0.5758 -0.5702 0.3732, -0.5761 -0.5703 0.3715, -0.5709 -0.5715 0.3776, -0.5715 -0.5709 0.3776, -0.5719 -0.5702 0.3776, -0.5722 -0.5694 0.3776, -0.5702 -0.5719 0.3776, -0.5697 -0.57 0.3783, -0.5708 -0.5733 0.3765, -0.5719 -0.5727 0.3765, -0.5727 -0.5719 0.3765, -0.5733 -0.5708 0.3765, -0.5737 -0.5697 0.3765, -0.5714 -0.5745 0.375, -0.5726 -0.5737 0.375, -0.5737 -0.5726 0.375, -0.5745 -0.5714 0.375, -0.575 -0.57 0.375, 0.5685 -0.5764 0.0472, 0.5703 -0.5761 0.0471, 0.5705 -0.5761 0.047, 0.5724 -0.5753 0.0469, 0.5734 -0.5746 0.0469, 0.5741 -0.5741 0.0469, 0.5746 -0.5734 0.0469, 0.5753 -0.5724 0.0469, 0.5761 -0.5705 0.047, 0.5761 -0.5703 0.0471, 0.5764 -0.5685 0.0472, 0.5685 -0.5135 0.04, 0.5685 0.5685 0.04, 0.5705 0.5685 0.0402, 0.5685 -0.5685 0.04, 0.5705 -0.5685 0.0402, 0.5705 -0.5685 0.0402, 0.5705 0.5685 0.0402, 0.5723 -0.5685 0.0409, 0.5723 0.5685 0.0409, 0.5723 -0.5685 0.041, 0.5723 0.5685 0.041, 0.5738 -0.5685 0.0421, 0.5738 0.5685 0.0421, 0.5739 -0.5685 0.0421, 0.5739 0.5685 0.0421, 0.5751 -0.5685 0.0436, 0.5751 0.5685 0.0436, 0.5751 -0.5685 0.0436, 0.5751 0.5685 0.0436, 0.576 -0.5685 0.0453, 0.576 0.5685 0.0453, 0.576 -0.5685 0.0453, 0.576 0.5685 0.0453, 0.5704 0.569 0.0402, 0.5697 0.57 0.0402, 0.57 0.5697 0.0402, 0.5685 0.5723 0.0409, 0.5685 0.5723 0.041, 0.5694 0.5722 0.041, 0.5685 0.5738 0.0421, 0.5685 0.5739 0.0421, 0.5697 0.5737 0.0421, 0.57 0.575 0.0436, 0.5702 0.5758 0.0453, 0.5718 0.5752 0.0453, 0.5758 0.5702 0.0453, 0.5685 0.576 0.0453, 0.5685 0.576 0.0453, 0.5685 0.5751 0.0436, 0.5685 0.5751 0.0436, 0.575 0.57 0.0436, 0.5714 0.5745 0.0436, 0.5732 0.5744 0.0453, 0.5737 0.5697 0.0421, 0.5708 0.5733 0.0421, 0.5726 0.5737 0.0436, 0.5744 0.5732 0.0453, 0.5722 0.5694 0.041, 0.5737 0.5726 0.0436, 0.5719 0.5727 0.0421, 0.5702 0.5719 0.041, 0.569 0.5704 0.0402, 0.5715 0.5709 0.041, 0.5752 0.5718 0.0453, 0.5745 0.5714 0.0436, 0.5733 0.5708 0.0421, 0.5719 0.5702 0.041, 0.5703 0.5694 0.0402, 0.5685 0.5705 0.0402, 0.5685 0.5705 0.0402, 0.5727 0.5719 0.0421, 0.5709 0.5715 0.041, 0.5694 0.5703 0.0402, -0.5906 0.5827 0.2093, -0.5903 0.5847 0.2093, -0.59 0.5857 0.2093, -0.5895 0.5866 0.2093, -0.5889 0.5875 0.2093, -0.5883 0.5883 0.2093, -0.5875 0.5889 0.2093, -0.5866 0.5895 0.2093, -0.5857 0.59 0.2093, -0.5847 0.5903 0.2093, -0.5827 0.5906 0.2093, -0.5827 -0.5906 0.2093, -0.5847 -0.5903 0.2093, -0.5857 -0.59 0.2093, -0.5866 -0.5895 0.2093, -0.5875 -0.5889 0.2093, -0.5883 -0.5883 0.2093, -0.5889 -0.5875 0.2093, -0.5895 -0.5866 0.2093, -0.59 -0.5857 0.2093, -0.5903 -0.5847 0.2093, -0.5906 -0.5827 0.2093, 0.5685 -0.5705 0.0402, 0.569 -0.5704 0.0402, 0.57 -0.5697 0.0402, 0.5697 -0.57 0.0402, 0.5722 -0.5694 0.041, 0.5737 -0.5697 0.0421, 0.575 -0.57 0.0436, 0.5758 -0.5702 0.0453, 0.5752 -0.5718 0.0453, 0.5702 -0.5758 0.0453, 0.5685 -0.576 0.0453, 0.5685 -0.576 0.0453, 0.57 -0.575 0.0436, 0.5745 -0.5714 0.0436, 0.5744 -0.5732 0.0453, 0.5685 -0.5751 0.0436, 0.5685 -0.5751 0.0436, 0.5697 -0.5737 0.0421, 0.5733 -0.5708 0.0421, 0.5737 -0.5726 0.0436, 0.5732 -0.5744 0.0453, 0.5685 -0.5739 0.0421, 0.5685 -0.5738 0.0421, 0.5694 -0.5722 0.041, 0.5726 -0.5737 0.0436, 0.5727 -0.5719 0.0421, 0.5719 -0.5702 0.041, 0.5704 -0.569 0.0402, 0.5709 -0.5715 0.041, 0.5718 -0.5752 0.0453, 0.5714 -0.5745 0.0436, 0.5708 -0.5733 0.0421, 0.5702 -0.5719 0.041, 0.5694 -0.5703 0.0402, 0.5719 -0.5727 0.0421, 0.5715 -0.5709 0.041, 0.5703 -0.5694 0.0402, 0.5685 -0.5723 0.041, 0.5685 -0.5723 0.0409, 0.5685 -0.5705 0.0402, 0.4479 0.5685 0.04, -0.5685 0.5685 0.04, -0.5685 0.5705 0.0402, -0.5685 0.5705 0.0402, -0.5685 0.5723 0.0409, -0.5685 0.5723 0.041, -0.5685 0.5738 0.0421, -0.5685 0.5739 0.0421, -0.5685 0.5751 0.0436, -0.5685 0.5751 0.0436, -0.5685 0.576 0.0453, -0.5685 0.576 0.0453, -0.5685 0.5764 0.0472, -0.5703 0.5761 0.0471, -0.5705 0.5761 0.047, -0.5724 0.5753 0.0469, -0.5734 0.5746 0.0469, -0.5741 0.5741 0.0469, -0.5746 0.5734 0.0469, -0.5753 0.5724 0.0469, -0.5761 0.5705 0.047, -0.5761 0.5703 0.0471, -0.5764 0.5685 0.0472, -0.5764 -0.5685 0.0472, -0.5761 -0.5703 0.0471, -0.5761 -0.5705 0.047, -0.5753 -0.5724 0.0469, -0.5746 -0.5734 0.0469, -0.5741 -0.5741 0.0469, -0.5734 -0.5746 0.0469, -0.5724 -0.5753 0.0469, -0.5705 -0.5761 0.047, -0.5703 -0.5761 0.0471, -0.5685 -0.5764 0.0472, 0.4479 -0.5685 0.04, -0.5685 -0.576 0.0453, -0.5685 -0.576 0.0453, -0.5685 -0.5751 0.0436, -0.5685 -0.5751 0.0436, -0.5685 -0.5739 0.0421, -0.5685 -0.5738 0.0421, -0.5685 -0.5723 0.041, -0.5685 -0.5723 0.0409, -0.5685 -0.5705 0.0402, -0.5685 -0.5705 0.0402, -0.5685 -0.5685 0.04, -0.569 0.5704 0.0402, -0.57 0.5697 0.0402, -0.5697 0.57 0.0402, -0.5723 0.5685 0.0409, -0.5723 0.5685 0.041, -0.5722 0.5694 0.041, -0.5738 0.5685 0.0421, -0.5739 0.5685 0.0421, -0.5737 0.5697 0.0421, -0.575 0.57 0.0436, -0.5758 0.5702 0.0453, -0.5752 0.5718 0.0453, -0.5702 0.5758 0.0453, -0.576 0.5685 0.0453, -0.576 0.5685 0.0453, -0.5751 0.5685 0.0436, -0.5751 0.5685 0.0436, -0.57 0.575 0.0436, -0.5745 0.5714 0.0436, -0.5744 0.5732 0.0453, -0.5697 0.5737 0.0421, -0.5733 0.5708 0.0421, -0.5737 0.5726 0.0436, -0.5732 0.5744 0.0453, -0.5694 0.5722 0.041, -0.5726 0.5737 0.0436, -0.5727 0.5719 0.0421, -0.5719 0.5702 0.041, -0.5704 0.569 0.0402, -0.5709 0.5715 0.041, -0.5718 0.5752 0.0453, -0.5714 0.5745 0.0436, -0.5708 0.5733 0.0421, -0.5702 0.5719 0.041, -0.5694 0.5703 0.0402, -0.5705 0.5685 0.0402, -0.5705 0.5685 0.0402, -0.5719 0.5727 0.0421, -0.5715 0.5709 0.041, -0.5703 0.5694 0.0402, -0.5705 -0.5685 0.0402, -0.5704 -0.569 0.0402, -0.5697 -0.57 0.0402, -0.57 -0.5697 0.0402, -0.5694 -0.5722 0.041, -0.5697 -0.5737 0.0421, -0.57 -0.575 0.0436, -0.5702 -0.5758 0.0453, -0.5718 -0.5752 0.0453, -0.5758 -0.5702 0.0453, -0.576 -0.5685 0.0453, -0.576 -0.5685 0.0453, -0.575 -0.57 0.0436, -0.5714 -0.5745 0.0436, -0.5732 -0.5744 0.0453, -0.5751 -0.5685 0.0436, -0.5751 -0.5685 0.0436, -0.5737 -0.5697 0.0421, -0.5708 -0.5733 0.0421, -0.5726 -0.5737 0.0436, -0.5744 -0.5732 0.0453, -0.5739 -0.5685 0.0421, -0.5738 -0.5685 0.0421, -0.5722 -0.5694 0.041, -0.5737 -0.5726 0.0436, -0.5719 -0.5727 0.0421, -0.5702 -0.5719 0.041, -0.569 -0.5704 0.0402, -0.5715 -0.5709 0.041, -0.5752 -0.5718 0.0453, -0.5745 -0.5714 0.0436, -0.5733 -0.5708 0.0421, -0.5719 -0.5702 0.041, -0.5703 -0.5694 0.0402, -0.5727 -0.5719 0.0421, -0.5709 -0.5715 0.041, -0.5694 -0.5703 0.0402, -0.5723 -0.5685 0.041, -0.5723 -0.5685 0.0409, -0.5705 -0.5685 0.0402, -0.5685 -0.5135 0.04
            ]
        }
        coordIndex [
            0,1,2,-1,2,1,3,-1,2,3,4,-1,4,3,5,-1,4,5,6,-1,6,5,7,-1,6,7,8,-1,8,7,9,-1,8,9,10,-1,10,9,11,-1,10,11,12,-1,12,11,13,-1,12,13,14,-1,14,13,15,-1,14,15,16,-1,16,15,17,-1,16,17,18,-1,18,17,19,-1,18,19,20,-1,19,21,20,-1,20,21,22,-1,20,22,23,-1,24,25,26,-1,27,28,29,-1,30,31,32,-1,22,33,34,-1,35,33,22,-1,32,31,22,-1,36,22,31,-1,37,38,39,-1,39,38,40,-1,39,40,41,-1,41,40,42,-1,41,42,43,-1,43,42,44,-1,44,42,45,-1,44,45,46,-1,46,45,47,-1,46,47,48,-1,48,47,49,-1,49,47,50,-1,49,50,51,-1,51,50,3,-1,51,3,1,-1,21,35,22,-1,52,53,30,-1,30,53,54,-1,30,54,31,-1,31,54,55,-1,31,55,36,-1,56,34,57,-1,57,34,33,-1,57,33,58,-1,58,33,35,-1,58,35,59,-1,28,52,29,-1,29,52,30,-1,29,30,60,-1,60,30,32,-1,60,32,61,-1,61,32,22,-1,21,19,35,-1,35,19,17,-1,35,17,59,-1,59,17,15,-1,59,15,13,-1,62,56,63,-1,63,56,57,-1,63,57,64,-1,64,57,58,-1,64,58,65,-1,65,58,59,-1,65,59,66,-1,66,59,13,-1,26,62,67,-1,67,62,63,-1,67,63,68,-1,68,63,64,-1,68,64,69,-1,69,64,65,-1,69,65,70,-1,70,65,66,-1,70,66,71,-1,25,27,26,-1,26,27,29,-1,26,29,62,-1,62,29,60,-1,62,60,56,-1,56,60,61,-1,56,61,34,-1,34,61,22,-1,37,72,38,-1,38,72,73,-1,38,73,24,-1,13,11,66,-1,66,11,9,-1,66,9,71,-1,71,9,7,-1,71,7,5,-1,24,26,38,-1,38,26,67,-1,38,67,40,-1,40,67,68,-1,40,68,42,-1,42,68,69,-1,42,69,45,-1,45,69,70,-1,45,70,47,-1,47,70,71,-1,47,71,50,-1,50,71,5,-1,50,5,3,-1,4,6,74,-1,8,10,75,-1,76,77,78,-1,23,79,80,-1,81,79,23,-1,78,77,23,-1,20,23,77,-1,82,83,84,-1,84,83,85,-1,84,85,86,-1,86,85,87,-1,86,87,88,-1,88,87,89,-1,89,87,90,-1,89,90,91,-1,91,90,92,-1,91,92,93,-1,93,92,94,-1,94,92,95,-1,94,95,96,-1,96,95,97,-1,96,97,98,-1,99,81,23,-1,12,14,76,-1,76,14,16,-1,76,16,77,-1,77,16,18,-1,77,18,20,-1,100,80,101,-1,101,80,79,-1,101,79,102,-1,102,79,81,-1,102,81,103,-1,10,12,75,-1,75,12,76,-1,75,76,104,-1,104,76,78,-1,104,78,105,-1,105,78,23,-1,99,106,81,-1,81,106,107,-1,81,107,103,-1,103,107,108,-1,103,108,109,-1,110,100,111,-1,111,100,101,-1,111,101,112,-1,112,101,102,-1,112,102,113,-1,113,102,103,-1,113,103,114,-1,114,103,109,-1,74,110,115,-1,115,110,111,-1,115,111,116,-1,116,111,112,-1,116,112,117,-1,117,112,113,-1,117,113,118,-1,118,113,114,-1,118,114,119,-1,6,8,74,-1,74,8,75,-1,74,75,110,-1,110,75,104,-1,110,104,100,-1,100,104,105,-1,100,105,80,-1,80,105,23,-1,82,0,83,-1,83,0,2,-1,83,2,4,-1,109,120,114,-1,114,120,121,-1,114,121,119,-1,119,121,122,-1,119,122,123,-1,4,74,83,-1,83,74,115,-1,83,115,85,-1,85,115,116,-1,85,116,87,-1,87,116,117,-1,87,117,90,-1,90,117,118,-1,90,118,92,-1,92,118,119,-1,92,119,95,-1,95,119,123,-1,95,123,97,-1,124,72,37,-1,124,37,125,-1,125,37,39,-1,125,39,126,-1,126,39,41,-1,126,41,127,-1,127,41,128,-1,128,41,43,-1,128,43,129,-1,129,43,44,-1,129,44,130,-1,130,44,46,-1,130,46,131,-1,131,46,48,-1,131,48,132,-1,132,48,49,-1,132,49,133,-1,133,49,134,-1,134,49,51,-1,134,51,1,-1,72,135,73,-1,73,135,136,-1,73,136,24,-1,24,136,137,-1,24,137,25,-1,25,137,138,-1,25,138,27,-1,27,138,139,-1,27,139,28,-1,28,139,140,-1,28,140,52,-1,52,140,141,-1,52,141,53,-1,53,141,142,-1,53,142,54,-1,54,142,143,-1,54,143,55,-1,55,143,144,-1,55,144,36,-1,144,145,36,-1,36,145,146,-1,36,146,22,-1,147,148,149,-1,149,148,150,-1,149,150,151,-1,151,150,152,-1,151,152,153,-1,153,152,154,-1,153,154,155,-1,155,154,156,-1,155,156,157,-1,157,156,158,-1,157,158,159,-1,159,158,160,-1,159,160,161,-1,161,160,162,-1,161,162,163,-1,163,162,164,-1,163,164,165,-1,165,164,166,-1,165,166,167,-1,166,168,167,-1,167,168,169,-1,167,169,146,-1,170,98,171,-1,171,98,97,-1,171,97,172,-1,172,97,123,-1,172,123,173,-1,173,123,122,-1,173,122,174,-1,174,122,121,-1,174,121,175,-1,175,121,120,-1,175,120,176,-1,176,120,109,-1,176,109,177,-1,177,109,108,-1,177,108,178,-1,178,108,107,-1,178,107,179,-1,179,107,106,-1,179,106,180,-1,106,99,180,-1,180,99,23,-1,180,23,169,-1,181,0,82,-1,181,82,182,-1,182,82,84,-1,182,84,183,-1,183,84,86,-1,183,86,184,-1,184,86,185,-1,185,86,88,-1,185,88,186,-1,186,88,89,-1,186,89,187,-1,187,89,91,-1,187,91,188,-1,188,91,93,-1,188,93,189,-1,189,93,94,-1,189,94,190,-1,190,94,191,-1,191,94,96,-1,191,96,98,-1,134,192,193,-1,134,193,133,-1,133,193,194,-1,133,194,132,-1,132,194,195,-1,132,195,131,-1,131,195,130,-1,130,195,196,-1,130,196,129,-1,129,196,197,-1,129,197,128,-1,128,197,198,-1,128,198,127,-1,127,198,199,-1,127,199,126,-1,126,199,200,-1,126,200,125,-1,125,200,124,-1,124,200,201,-1,124,201,202,-1,151,153,203,-1,155,157,204,-1,205,206,207,-1,146,208,209,-1,210,208,146,-1,207,206,146,-1,167,146,206,-1,211,212,213,-1,213,212,214,-1,213,214,215,-1,215,214,216,-1,215,216,217,-1,217,216,218,-1,218,216,219,-1,218,219,220,-1,220,219,221,-1,220,221,222,-1,222,221,223,-1,223,221,224,-1,223,224,225,-1,225,224,136,-1,225,136,135,-1,145,210,146,-1,159,161,205,-1,205,161,163,-1,205,163,206,-1,206,163,165,-1,206,165,167,-1,226,209,227,-1,227,209,208,-1,227,208,228,-1,228,208,210,-1,228,210,229,-1,157,159,204,-1,204,159,205,-1,204,205,230,-1,230,205,207,-1,230,207,231,-1,231,207,146,-1,145,144,210,-1,210,144,143,-1,210,143,229,-1,229,143,142,-1,229,142,141,-1,232,226,233,-1,233,226,227,-1,233,227,234,-1,234,227,228,-1,234,228,235,-1,235,228,229,-1,235,229,236,-1,236,229,141,-1,203,232,237,-1,237,232,233,-1,237,233,238,-1,238,233,234,-1,238,234,239,-1,239,234,235,-1,239,235,240,-1,240,235,236,-1,240,236,241,-1,153,155,203,-1,203,155,204,-1,203,204,232,-1,232,204,230,-1,232,230,226,-1,226,230,231,-1,226,231,209,-1,209,231,146,-1,211,147,212,-1,212,147,149,-1,212,149,151,-1,141,140,236,-1,236,140,139,-1,236,139,241,-1,241,139,138,-1,241,138,137,-1,151,203,212,-1,212,203,237,-1,212,237,214,-1,214,237,238,-1,214,238,216,-1,216,238,239,-1,216,239,219,-1,219,239,240,-1,219,240,221,-1,221,240,241,-1,221,241,224,-1,224,241,137,-1,224,137,136,-1,172,173,242,-1,174,175,243,-1,244,245,246,-1,169,247,248,-1,249,247,169,-1,246,245,169,-1,180,169,245,-1,250,251,252,-1,252,251,253,-1,252,253,254,-1,254,253,255,-1,254,255,256,-1,256,255,257,-1,257,255,258,-1,257,258,259,-1,259,258,260,-1,259,260,261,-1,261,260,262,-1,262,260,263,-1,262,263,264,-1,264,263,150,-1,264,150,148,-1,168,249,169,-1,176,177,244,-1,244,177,178,-1,244,178,245,-1,245,178,179,-1,245,179,180,-1,265,248,266,-1,266,248,247,-1,266,247,267,-1,267,247,249,-1,267,249,268,-1,175,176,243,-1,243,176,244,-1,243,244,269,-1,269,244,246,-1,269,246,270,-1,270,246,169,-1,168,166,249,-1,249,166,164,-1,249,164,268,-1,268,164,162,-1,268,162,160,-1,271,265,272,-1,272,265,266,-1,272,266,273,-1,273,266,267,-1,273,267,274,-1,274,267,268,-1,274,268,275,-1,275,268,160,-1,242,271,276,-1,276,271,272,-1,276,272,277,-1,277,272,273,-1,277,273,278,-1,278,273,274,-1,278,274,279,-1,279,274,275,-1,279,275,280,-1,173,174,242,-1,242,174,243,-1,242,243,271,-1,271,243,269,-1,271,269,265,-1,265,269,270,-1,265,270,248,-1,248,270,169,-1,250,170,251,-1,251,170,171,-1,251,171,172,-1,160,158,275,-1,275,158,156,-1,275,156,280,-1,280,156,154,-1,280,154,152,-1,172,242,251,-1,251,242,276,-1,251,276,253,-1,253,276,277,-1,253,277,255,-1,255,277,278,-1,255,278,258,-1,258,278,279,-1,258,279,260,-1,260,279,280,-1,260,280,263,-1,263,280,152,-1,263,152,150,-1,191,281,282,-1,191,282,190,-1,190,282,283,-1,190,283,189,-1,189,283,284,-1,189,284,188,-1,188,284,187,-1,187,284,285,-1,187,285,186,-1,186,285,286,-1,186,286,185,-1,185,286,287,-1,185,287,184,-1,184,287,288,-1,184,288,183,-1,183,288,289,-1,183,289,182,-1,182,289,181,-1,181,289,290,-1,181,290,291,-1,292,293,294,-1,295,292,296,-1,296,292,294,-1,296,294,297,-1,297,294,298,-1,297,298,299,-1,299,298,300,-1,299,300,301,-1,301,300,302,-1,301,302,303,-1,303,302,304,-1,303,304,305,-1,305,304,306,-1,305,306,307,-1,307,306,308,-1,307,308,309,-1,309,308,310,-1,309,310,311,-1,311,310,312,-1,311,312,313,-1,313,312,314,-1,313,314,291,-1,291,314,192,-1,294,293,315,-1,316,317,293,-1,318,319,320,-1,321,322,323,-1,324,325,326,-1,194,193,327,-1,327,193,192,-1,326,199,198,-1,199,326,200,-1,200,326,325,-1,200,325,201,-1,202,201,328,-1,328,201,325,-1,328,325,329,-1,329,325,324,-1,329,324,330,-1,330,324,331,-1,192,314,327,-1,327,314,312,-1,327,312,332,-1,322,331,323,-1,323,331,324,-1,323,324,333,-1,333,324,326,-1,333,326,334,-1,334,326,198,-1,334,198,197,-1,312,310,332,-1,332,310,308,-1,332,308,335,-1,319,321,320,-1,320,321,323,-1,320,323,336,-1,336,323,333,-1,336,333,337,-1,337,333,334,-1,337,334,338,-1,338,334,197,-1,338,197,196,-1,308,306,335,-1,335,306,304,-1,335,304,339,-1,338,340,337,-1,337,340,341,-1,337,341,336,-1,336,341,342,-1,336,342,320,-1,320,342,343,-1,320,343,318,-1,317,316,344,-1,195,194,345,-1,345,194,327,-1,345,327,346,-1,346,327,332,-1,346,332,347,-1,347,332,335,-1,347,335,348,-1,348,335,339,-1,348,339,349,-1,349,339,315,-1,349,315,293,-1,293,350,343,-1,343,350,351,-1,343,351,318,-1,340,352,341,-1,341,352,353,-1,341,353,342,-1,342,353,354,-1,342,354,343,-1,343,354,293,-1,352,344,353,-1,353,344,316,-1,353,316,354,-1,354,316,293,-1,304,302,339,-1,339,302,300,-1,339,300,315,-1,315,300,298,-1,315,298,294,-1,196,195,338,-1,338,195,345,-1,338,345,340,-1,340,345,346,-1,340,346,352,-1,352,346,347,-1,352,347,344,-1,344,347,348,-1,344,348,317,-1,317,348,349,-1,317,349,293,-1,355,147,211,-1,355,211,356,-1,356,211,213,-1,356,213,357,-1,357,213,215,-1,357,215,358,-1,358,215,359,-1,359,215,217,-1,359,217,360,-1,360,217,218,-1,360,218,361,-1,361,218,220,-1,361,220,362,-1,362,220,222,-1,362,222,363,-1,363,222,223,-1,363,223,364,-1,364,223,365,-1,365,223,225,-1,365,225,135,-1,366,170,250,-1,366,250,367,-1,367,250,252,-1,367,252,368,-1,368,252,254,-1,368,254,369,-1,369,254,370,-1,370,254,256,-1,370,256,371,-1,371,256,257,-1,371,257,372,-1,372,257,259,-1,372,259,373,-1,373,259,261,-1,373,261,374,-1,374,261,262,-1,374,262,375,-1,375,262,376,-1,376,262,264,-1,376,264,148,-1,377,295,378,-1,379,380,295,-1,299,301,381,-1,303,305,382,-1,383,384,385,-1,283,282,386,-1,386,282,281,-1,385,288,287,-1,288,385,289,-1,289,385,384,-1,289,384,290,-1,291,290,313,-1,313,290,384,-1,313,384,311,-1,311,384,383,-1,311,383,309,-1,309,383,307,-1,281,387,386,-1,386,387,388,-1,386,388,389,-1,305,307,382,-1,382,307,383,-1,382,383,390,-1,390,383,385,-1,390,385,391,-1,391,385,287,-1,391,287,286,-1,388,392,389,-1,389,392,393,-1,389,393,394,-1,301,303,381,-1,381,303,382,-1,381,382,395,-1,395,382,390,-1,395,390,396,-1,396,390,391,-1,396,391,397,-1,397,391,286,-1,397,286,285,-1,393,398,394,-1,394,398,399,-1,394,399,400,-1,397,401,396,-1,396,401,402,-1,396,402,395,-1,395,402,403,-1,395,403,381,-1,381,403,404,-1,381,404,299,-1,380,379,405,-1,284,283,406,-1,406,283,386,-1,406,386,407,-1,407,386,389,-1,407,389,408,-1,408,389,394,-1,408,394,409,-1,409,394,400,-1,409,400,410,-1,410,400,378,-1,410,378,295,-1,295,296,404,-1,404,296,297,-1,404,297,299,-1,401,411,402,-1,402,411,412,-1,402,412,403,-1,403,412,413,-1,403,413,404,-1,404,413,295,-1,411,405,412,-1,412,405,379,-1,412,379,413,-1,413,379,295,-1,399,414,400,-1,400,414,415,-1,400,415,378,-1,378,415,416,-1,378,416,377,-1,285,284,397,-1,397,284,406,-1,397,406,401,-1,401,406,407,-1,401,407,411,-1,411,407,408,-1,411,408,405,-1,405,408,409,-1,405,409,380,-1,380,409,410,-1,380,410,295,-1,417,418,419,-1,293,417,350,-1,350,417,419,-1,350,419,351,-1,351,419,420,-1,351,420,318,-1,318,420,421,-1,318,421,319,-1,319,421,422,-1,319,422,321,-1,321,422,423,-1,321,423,322,-1,322,423,424,-1,322,424,331,-1,331,424,425,-1,331,425,330,-1,330,425,426,-1,330,426,329,-1,329,426,427,-1,329,427,328,-1,328,427,428,-1,328,428,202,-1,202,428,429,-1,365,429,430,-1,365,430,364,-1,364,430,431,-1,364,431,363,-1,363,431,432,-1,363,432,362,-1,362,432,361,-1,361,432,433,-1,361,433,360,-1,360,433,434,-1,360,434,359,-1,359,434,435,-1,359,435,358,-1,358,435,436,-1,358,436,357,-1,357,436,437,-1,357,437,356,-1,356,437,355,-1,355,437,438,-1,355,438,439,-1,376,440,441,-1,376,441,375,-1,375,441,442,-1,375,442,374,-1,374,442,443,-1,374,443,373,-1,373,443,372,-1,372,443,444,-1,372,444,371,-1,371,444,445,-1,371,445,370,-1,370,445,446,-1,370,446,369,-1,369,446,447,-1,369,447,368,-1,368,447,448,-1,368,448,367,-1,367,448,366,-1,366,448,449,-1,366,449,450,-1,451,295,377,-1,281,450,387,-1,387,450,452,-1,387,452,388,-1,388,452,453,-1,388,453,392,-1,392,453,454,-1,392,454,393,-1,393,454,455,-1,393,455,398,-1,398,455,456,-1,398,456,399,-1,399,456,457,-1,399,457,414,-1,414,457,458,-1,414,458,415,-1,415,458,459,-1,415,459,416,-1,416,459,460,-1,416,460,377,-1,377,460,461,-1,377,461,451,-1,451,461,462,-1,419,418,463,-1,464,465,418,-1,466,467,468,-1,469,470,471,-1,472,473,474,-1,431,430,475,-1,475,430,429,-1,474,436,435,-1,436,474,437,-1,437,474,473,-1,437,473,438,-1,439,438,476,-1,476,438,473,-1,476,473,477,-1,477,473,472,-1,477,472,478,-1,478,472,479,-1,429,428,475,-1,475,428,427,-1,475,427,480,-1,470,479,471,-1,471,479,472,-1,471,472,481,-1,481,472,474,-1,481,474,482,-1,482,474,435,-1,482,435,434,-1,427,426,480,-1,480,426,425,-1,480,425,483,-1,467,469,468,-1,468,469,471,-1,468,471,484,-1,484,471,481,-1,484,481,485,-1,485,481,482,-1,485,482,486,-1,486,482,434,-1,486,434,433,-1,425,424,483,-1,483,424,423,-1,483,423,487,-1,486,488,485,-1,485,488,489,-1,485,489,484,-1,484,489,490,-1,484,490,468,-1,468,490,491,-1,468,491,466,-1,465,464,492,-1,432,431,493,-1,493,431,475,-1,493,475,494,-1,494,475,480,-1,494,480,495,-1,495,480,483,-1,495,483,496,-1,496,483,487,-1,496,487,497,-1,497,487,463,-1,497,463,418,-1,418,498,491,-1,491,498,499,-1,491,499,466,-1,488,500,489,-1,489,500,501,-1,489,501,490,-1,490,501,502,-1,490,502,491,-1,491,502,418,-1,500,492,501,-1,501,492,464,-1,501,464,502,-1,502,464,418,-1,423,422,487,-1,487,422,421,-1,487,421,463,-1,463,421,420,-1,463,420,419,-1,433,432,486,-1,486,432,493,-1,486,493,488,-1,488,493,494,-1,488,494,500,-1,500,494,495,-1,500,495,492,-1,492,495,496,-1,492,496,465,-1,465,496,497,-1,465,497,418,-1,503,462,504,-1,505,506,462,-1,459,458,507,-1,457,456,508,-1,509,510,511,-1,442,441,512,-1,512,441,440,-1,511,447,446,-1,447,511,448,-1,448,511,510,-1,448,510,449,-1,450,449,452,-1,452,449,510,-1,452,510,453,-1,453,510,509,-1,453,509,454,-1,454,509,455,-1,440,513,512,-1,512,513,514,-1,512,514,515,-1,456,455,508,-1,508,455,509,-1,508,509,516,-1,516,509,511,-1,516,511,517,-1,517,511,446,-1,517,446,445,-1,514,518,515,-1,515,518,519,-1,515,519,520,-1,458,457,507,-1,507,457,508,-1,507,508,521,-1,521,508,516,-1,521,516,522,-1,522,516,517,-1,522,517,523,-1,523,517,445,-1,523,445,444,-1,519,524,520,-1,520,524,525,-1,520,525,526,-1,523,527,522,-1,522,527,528,-1,522,528,521,-1,521,528,529,-1,521,529,507,-1,507,529,530,-1,507,530,459,-1,506,505,531,-1,443,442,532,-1,532,442,512,-1,532,512,533,-1,533,512,515,-1,533,515,534,-1,534,515,520,-1,534,520,535,-1,535,520,526,-1,535,526,536,-1,536,526,504,-1,536,504,462,-1,462,461,530,-1,530,461,460,-1,530,460,459,-1,527,537,528,-1,528,537,538,-1,528,538,529,-1,529,538,539,-1,529,539,530,-1,530,539,462,-1,537,531,538,-1,538,531,505,-1,538,505,539,-1,539,505,462,-1,525,540,526,-1,526,540,541,-1,526,541,504,-1,504,541,542,-1,504,542,503,-1,444,443,523,-1,523,443,532,-1,523,532,527,-1,527,532,533,-1,527,533,537,-1,537,533,534,-1,537,534,531,-1,531,534,535,-1,531,535,506,-1,506,535,536,-1,506,536,462,-1,543,462,503,-1,440,439,513,-1,513,439,476,-1,513,476,514,-1,514,476,477,-1,514,477,518,-1,518,477,478,-1,518,478,519,-1,519,478,479,-1,519,479,524,-1,524,479,470,-1,524,470,525,-1,525,470,469,-1,525,469,540,-1,540,469,467,-1,540,467,541,-1,541,467,466,-1,541,466,542,-1,542,466,499,-1,542,499,503,-1,503,499,498,-1,503,498,543,-1,543,498,418,-1,
        ]
    }
}
Shape{
    appearance Appearance {
        material  Material 	{
            diffuseColor 0.0 0.0 0.0
            specularColor 0.0 0.0 0.0
            ambientIntensity 0.0
            transparency 0.0
            shininess 0.5
        }
    }
    geometry IndexedFaceSet {
        ccw TRUE
        solid FALSE
        coord DEF co Coordinate {
            point [
                0.3894 -0.4738 0.0404, 0.374 -0.5132 0.0404, 0.3894 -0.4738 0.04, 0.374 -0.5132 0.04, 0.3798 -0.5132 0.0404, 0.3798 -0.5132 0.04, 0.3838 -0.5022 0.0404, 0.3838 -0.5022 0.04, 0.4 -0.5022 0.0404, 0.4 -0.5022 0.04, 0.4038 -0.5132 0.0404, 0.4038 -0.5132 0.04, 0.4095 -0.5132 0.0404, 0.4095 -0.5132 0.04, 0.3947 -0.4738 0.0404, 0.3947 -0.4738 0.04, 0.3987 -0.4978 0.0404, 0.3855 -0.4978 0.0404, 0.3928 -0.4814 0.0404, 0.3924 -0.48 0.0404, 0.3922 -0.4786 0.0404, 0.3921 -0.4786 0.0404, 0.3918 -0.48 0.0404, 0.3914 -0.4814 0.0404, 0.3987 -0.4978 0.04, 0.3855 -0.4978 0.04, 0.3928 -0.4814 0.04, 0.3924 -0.48 0.04, 0.3922 -0.4786 0.04, 0.3921 -0.4786 0.04, 0.3918 -0.48 0.04, 0.3914 -0.4814 0.04, 0.4334 -0.5132 0.0404, 0.4441 -0.5132 0.0404, 0.4334 -0.5132 0.04, 0.4441 -0.5132 0.04, 0.4441 -0.4738 0.0404, 0.4441 -0.4738 0.04, 0.433 -0.4738 0.0404, 0.433 -0.4738 0.04, 0.4124 -0.493 0.0404, 0.4124 -0.493 0.04, 0.4127 -0.4893 0.04, 0.4127 -0.4893 0.0404, 0.4138 -0.4854 0.04, 0.4138 -0.4854 0.0404, 0.4156 -0.4821 0.04, 0.4156 -0.4821 0.0404, 0.4184 -0.479 0.04, 0.4184 -0.479 0.0404, 0.4184 -0.4789 0.04, 0.4184 -0.4789 0.0404, 0.4227 -0.4761 0.04, 0.4227 -0.4761 0.0404, 0.4273 -0.4744 0.04, 0.4273 -0.4744 0.0404, 0.4285 -0.5128 0.04, 0.4285 -0.5128 0.0404, 0.424 -0.5114 0.04, 0.424 -0.5114 0.0404, 0.4199 -0.509 0.04, 0.4199 -0.509 0.0404, 0.4166 -0.5059 0.04, 0.4166 -0.5059 0.0404, 0.4144 -0.5024 0.04, 0.4144 -0.5024 0.0404, 0.413 -0.4983 0.04, 0.413 -0.4983 0.0404, 0.4203 -0.4837 0.0404, 0.4222 -0.4817 0.0404, 0.4251 -0.4798 0.0404, 0.4284 -0.4787 0.0404, 0.433 -0.4782 0.0404, 0.4388 -0.4782 0.0404, 0.4388 -0.5089 0.0404, 0.4332 -0.5089 0.0404, 0.4291 -0.5085 0.0404, 0.4258 -0.5075 0.0404, 0.4231 -0.5059 0.0404, 0.4209 -0.5037 0.0404, 0.4192 -0.501 0.0404, 0.4181 -0.4973 0.0404, 0.4177 -0.4931 0.0404, 0.418 -0.4892 0.0404, 0.419 -0.4861 0.0404, 0.433 -0.4782 0.04, 0.4388 -0.4782 0.04, 0.4284 -0.4787 0.04, 0.4251 -0.4798 0.04, 0.4222 -0.4817 0.04, 0.4203 -0.4837 0.04, 0.419 -0.4861 0.04, 0.418 -0.4892 0.04, 0.4177 -0.4931 0.04, 0.4181 -0.4973 0.04, 0.4192 -0.501 0.04, 0.4209 -0.5037 0.04, 0.4231 -0.5059 0.04, 0.4258 -0.5075 0.04, 0.4291 -0.5085 0.04, 0.4332 -0.5089 0.04, 0.4388 -0.5089 0.04, 0.4518 -0.5089 0.0404, 0.4518 -0.5132 0.0404, 0.4518 -0.5089 0.04, 0.4518 -0.5132 0.04, 0.4729 -0.5132 0.0404, 0.4729 -0.5132 0.04, 0.4729 -0.4738 0.0404, 0.4729 -0.4738 0.04, 0.4527 -0.4738 0.0404, 0.4527 -0.4738 0.04, 0.4527 -0.4782 0.0404, 0.4527 -0.4782 0.04, 0.4676 -0.4782 0.0404, 0.4676 -0.4782 0.04, 0.4676 -0.4911 0.0404, 0.4676 -0.4911 0.04, 0.4537 -0.4911 0.0404, 0.4537 -0.4911 0.04, 0.4537 -0.4954 0.0404, 0.4537 -0.4954 0.04, 0.4676 -0.4954 0.0404, 0.4676 -0.4954 0.04, 0.4676 -0.5089 0.0404, 0.4676 -0.5089 0.04, 0.4806 -0.5068 0.0404, 0.4806 -0.5112 0.0404, 0.4806 -0.5068 0.04, 0.4806 -0.5112 0.04, 0.4848 -0.5129 0.0404, 0.4914 -0.5137 0.0404, 0.4914 -0.5137 0.04, 0.4903 -0.5137 0.04, 0.4903 -0.5137 0.0404, 0.4888 -0.5135 0.04, 0.4848 -0.5129 0.04, 0.4937 -0.5135 0.04, 0.4963 -0.5132 0.0404, 0.4963 -0.5132 0.04, 0.5001 -0.5119 0.0404, 0.5001 -0.5119 0.04, 0.5033 -0.5099 0.0404, 0.5033 -0.5099 0.04, 0.5062 -0.5067 0.0404, 0.5062 -0.5067 0.04, 0.5083 -0.503 0.0404, 0.5083 -0.503 0.04, 0.5095 -0.4988 0.0404, 0.5095 -0.4988 0.04, 0.5099 -0.4943 0.0404, 0.5099 -0.4943 0.04, 0.4899 -0.4734 0.0404, 0.4899 -0.4734 0.04, 0.4938 -0.4737 0.04, 0.4938 -0.4737 0.0404, 0.4982 -0.475 0.04, 0.4982 -0.475 0.0404, 0.5019 -0.4771 0.04, 0.5019 -0.4771 0.0404, 0.5055 -0.4805 0.04, 0.5055 -0.4805 0.0404, 0.5078 -0.4842 0.04, 0.5078 -0.4842 0.0404, 0.5093 -0.4887 0.04, 0.5093 -0.4887 0.0404, 0.4806 -0.4749 0.0404, 0.4806 -0.4749 0.04, 0.4851 -0.4737 0.04, 0.4851 -0.4737 0.0404, 0.4806 -0.4802 0.0404, 0.4806 -0.4802 0.04, 0.4898 -0.4777 0.0404, 0.4898 -0.4777 0.04, 0.485 -0.4783 0.04, 0.485 -0.4783 0.0404, 0.5046 -0.4939 0.0404, 0.5046 -0.4939 0.04, 0.5044 -0.4909 0.04, 0.5044 -0.4909 0.0404, 0.5034 -0.4867 0.04, 0.5034 -0.4867 0.0404, 0.5017 -0.4836 0.04, 0.5017 -0.4836 0.0404, 0.4994 -0.481 0.04, 0.4994 -0.481 0.0404, 0.4966 -0.4792 0.04, 0.4966 -0.4792 0.0404, 0.4937 -0.4781 0.04, 0.4937 -0.4781 0.0404, 0.4907 -0.5094 0.0404, 0.4907 -0.5094 0.04, 0.4944 -0.509 0.04, 0.4944 -0.509 0.0404, 0.4972 -0.5079 0.04, 0.4972 -0.5079 0.0404, 0.4997 -0.5063 0.04, 0.4997 -0.5063 0.0404, 0.5015 -0.5043 0.04, 0.5015 -0.5043 0.0404, 0.5031 -0.5016 0.04, 0.5031 -0.5016 0.0404, 0.5042 -0.4982 0.04, 0.5042 -0.4982 0.0404, 0.4813 -0.5072 0.04, 0.4813 -0.5072 0.0404, 0.4855 -0.5088 0.04, 0.4855 -0.5088 0.0404, 0.5132 -0.5089 0.0404, 0.5132 -0.5132 0.0404, 0.5132 -0.5089 0.04, 0.5132 -0.5132 0.04, 0.5334 -0.5132 0.0404, 0.5334 -0.5132 0.04, 0.5334 -0.4738 0.0404, 0.5334 -0.4738 0.04, 0.5281 -0.4738 0.0404, 0.5281 -0.4738 0.04, 0.5281 -0.5089 0.0404, 0.5281 -0.5089 0.04
            ]
        }
        coordIndex [
            0,1,2,-1,2,1,3,-1,1,4,3,-1,3,4,5,-1,4,6,5,-1,5,6,7,-1,6,8,7,-1,7,8,9,-1,8,10,9,-1,9,10,11,-1,10,12,11,-1,11,12,13,-1,12,14,13,-1,13,14,15,-1,14,0,15,-1,15,0,2,-1,16,8,17,-1,17,8,6,-1,18,14,16,-1,16,14,12,-1,16,12,8,-1,8,12,10,-1,18,19,14,-1,14,19,20,-1,14,20,0,-1,0,20,21,-1,0,21,22,-1,22,23,0,-1,0,23,17,-1,0,17,1,-1,1,17,6,-1,1,6,4,-1,16,17,24,-1,24,17,25,-1,18,16,26,-1,26,16,24,-1,18,26,27,-1,18,27,19,-1,19,27,28,-1,19,28,20,-1,21,20,29,-1,29,20,28,-1,21,29,30,-1,21,30,22,-1,22,30,31,-1,22,31,23,-1,17,23,25,-1,25,23,31,-1,32,33,34,-1,34,33,35,-1,33,36,35,-1,35,36,37,-1,36,38,37,-1,37,38,39,-1,40,41,42,-1,40,42,43,-1,43,42,44,-1,43,44,45,-1,45,44,46,-1,45,46,47,-1,47,46,48,-1,47,48,49,-1,49,48,50,-1,49,50,51,-1,51,50,52,-1,51,52,53,-1,53,52,54,-1,53,54,55,-1,55,54,39,-1,55,39,38,-1,32,34,56,-1,32,56,57,-1,57,56,58,-1,57,58,59,-1,59,58,60,-1,59,60,61,-1,61,60,62,-1,61,62,63,-1,63,62,64,-1,63,64,65,-1,65,64,66,-1,65,66,67,-1,67,66,41,-1,67,41,40,-1,45,47,68,-1,68,47,49,-1,68,49,69,-1,69,49,51,-1,69,51,70,-1,70,51,53,-1,70,53,71,-1,71,53,55,-1,71,55,72,-1,72,55,38,-1,72,38,73,-1,73,38,36,-1,73,36,74,-1,74,36,33,-1,74,33,75,-1,75,33,32,-1,75,32,76,-1,76,32,57,-1,76,57,77,-1,77,57,59,-1,77,59,78,-1,78,59,61,-1,78,61,79,-1,79,61,63,-1,79,63,80,-1,80,63,65,-1,80,65,81,-1,81,65,67,-1,81,67,82,-1,82,67,40,-1,82,40,83,-1,83,40,43,-1,83,43,84,-1,84,43,45,-1,84,45,68,-1,72,73,85,-1,85,73,86,-1,72,85,87,-1,72,87,71,-1,71,87,88,-1,71,88,70,-1,70,88,89,-1,70,89,69,-1,69,89,90,-1,69,90,68,-1,68,90,91,-1,68,91,84,-1,84,91,92,-1,84,92,83,-1,83,92,93,-1,83,93,82,-1,82,93,94,-1,82,94,81,-1,81,94,95,-1,81,95,80,-1,80,95,96,-1,80,96,79,-1,79,96,97,-1,79,97,78,-1,78,97,98,-1,78,98,77,-1,77,98,99,-1,77,99,76,-1,76,99,100,-1,76,100,75,-1,74,75,101,-1,101,75,100,-1,73,74,86,-1,86,74,101,-1,102,103,104,-1,104,103,105,-1,103,106,105,-1,105,106,107,-1,106,108,107,-1,107,108,109,-1,108,110,109,-1,109,110,111,-1,110,112,111,-1,111,112,113,-1,112,114,113,-1,113,114,115,-1,114,116,115,-1,115,116,117,-1,116,118,117,-1,117,118,119,-1,118,120,119,-1,119,120,121,-1,120,122,121,-1,121,122,123,-1,122,124,123,-1,123,124,125,-1,124,102,125,-1,125,102,104,-1,106,103,102,-1,102,124,106,-1,106,124,122,-1,106,122,108,-1,112,110,114,-1,114,110,108,-1,114,108,116,-1,116,108,122,-1,116,122,118,-1,118,122,120,-1,126,127,128,-1,128,127,129,-1,129,127,130,-1,131,132,133,-1,131,133,134,-1,134,133,135,-1,134,135,130,-1,130,135,136,-1,130,136,129,-1,132,131,137,-1,137,131,138,-1,137,138,139,-1,139,138,140,-1,139,140,141,-1,141,140,142,-1,141,142,143,-1,143,142,144,-1,143,144,145,-1,145,144,146,-1,145,146,147,-1,147,146,148,-1,147,148,149,-1,149,148,150,-1,149,150,151,-1,152,153,154,-1,152,154,155,-1,155,154,156,-1,155,156,157,-1,157,156,158,-1,157,158,159,-1,159,158,160,-1,159,160,161,-1,161,160,162,-1,161,162,163,-1,163,162,164,-1,163,164,165,-1,165,164,151,-1,165,151,150,-1,166,167,168,-1,166,168,169,-1,169,168,153,-1,169,153,152,-1,166,170,167,-1,167,170,171,-1,172,173,174,-1,172,174,175,-1,175,174,171,-1,175,171,170,-1,176,177,178,-1,176,178,179,-1,179,178,180,-1,179,180,181,-1,181,180,182,-1,181,182,183,-1,183,182,184,-1,183,184,185,-1,185,184,186,-1,185,186,187,-1,187,186,188,-1,187,188,189,-1,189,188,173,-1,189,173,172,-1,190,191,192,-1,190,192,193,-1,193,192,194,-1,193,194,195,-1,195,194,196,-1,195,196,197,-1,197,196,198,-1,197,198,199,-1,199,198,200,-1,199,200,201,-1,201,200,202,-1,201,202,203,-1,203,202,177,-1,203,177,176,-1,126,128,204,-1,126,204,205,-1,205,204,206,-1,205,206,207,-1,207,206,191,-1,207,191,190,-1,193,131,190,-1,190,131,134,-1,190,134,207,-1,207,134,130,-1,207,130,205,-1,205,130,127,-1,205,127,126,-1,170,166,175,-1,175,166,169,-1,175,169,172,-1,172,169,152,-1,172,152,189,-1,189,152,155,-1,189,155,187,-1,187,155,157,-1,187,157,185,-1,185,157,159,-1,185,159,183,-1,183,159,161,-1,183,161,181,-1,181,161,163,-1,181,163,179,-1,179,163,165,-1,179,165,176,-1,176,165,150,-1,176,150,203,-1,203,150,148,-1,203,148,201,-1,201,148,146,-1,201,146,199,-1,199,146,144,-1,199,144,197,-1,197,144,142,-1,197,142,195,-1,195,142,140,-1,195,140,193,-1,193,140,138,-1,193,138,131,-1,208,209,210,-1,210,209,211,-1,209,212,211,-1,211,212,213,-1,212,214,213,-1,213,214,215,-1,214,216,215,-1,215,216,217,-1,216,218,217,-1,217,218,219,-1,218,208,219,-1,219,208,210,-1,216,214,218,-1,218,214,212,-1,218,212,208,-1,208,212,209,-1,
        ]
    }
}
Shape{
    appearance Appearance {
        material  Material 	{
            diffuseColor 0.25098039215686274 0.25098039215686274 0.25098039215686274
            specularColor 0.12549019607843137 0.12549019607843137 0.12549019607843137
            ambientIntensity 0.251
            transparency 0.0
            shininess 0.5
        }
    }
    geometry IndexedFaceSet {
        ccw TRUE
        solid FALSE
        coord DEF co Coordinate {
            point [
                0.3987 -0.4978 0.04, 0.3855 -0.4978 0.04, 0.3928 -0.4814 0.04, 0.3914 -0.4814 0.04, 0.3924 -0.48 0.04, 0.3918 -0.48 0.04, 0.3922 -0.4786 0.04, 0.3921 -0.4786 0.04, 0.4388 -0.4782 0.04, 0.4388 -0.5089 0.04, 0.433 -0.4782 0.04, 0.4332 -0.5089 0.04, 0.4291 -0.5085 0.04, 0.4177 -0.4931 0.04, 0.418 -0.4892 0.04, 0.419 -0.4861 0.04, 0.4284 -0.4787 0.04, 0.4258 -0.5075 0.04, 0.4231 -0.5059 0.04, 0.4209 -0.5037 0.04, 0.4192 -0.501 0.04, 0.4181 -0.4973 0.04, 0.4203 -0.4837 0.04, 0.4222 -0.4817 0.04, 0.4251 -0.4798 0.04
            ]
        }
        coordIndex [
            0,1,2,-1,2,1,3,-1,2,3,4,-1,4,3,5,-1,4,5,6,-1,6,5,7,-1,8,9,10,-1,10,9,11,-1,10,11,12,-1,13,14,10,-1,10,14,15,-1,10,15,16,-1,12,17,10,-1,10,17,18,-1,10,18,19,-1,19,20,10,-1,10,20,21,-1,10,21,13,-1,22,23,15,-1,15,23,24,-1,15,24,16,-1,
        ]
    }
}
Shape{
    appearance Appearance {
        material  Material 	{
            diffuseColor 1.0 1.0 1.0
            specularColor 0.5019607843137255 0.5019607843137255 0.5019607843137255
            ambientIntensity 1.0
            transparency 0.0
            shininess 0.5
        }
    }
    geometry IndexedFaceSet {
        ccw TRUE
        solid FALSE
        coord DEF co Coordinate {
            point [
                -0.0433 -0.5854 0.2677, -0.0433 -0.708 0.2677, 0.0433 -0.5854 0.2677, 0.0433 -0.708 0.2677, 0.0433 -0.708 0.1969, 0.0433 -0.5895 0.1969, 0.0433 -0.5906 0.2093, 0.0433 -0.9646 0.0709, 0.0433 -0.9646 0.0, 0.0433 -0.822 0.0709, 0.0433 -0.822 0.0, 0.0433 -0.8202 0.0711, 0.0433 -0.8038 0.0021, 0.0433 -0.8184 0.0717, 0.0433 -0.7866 0.0084, 0.0433 -0.8169 0.0727, 0.0433 -0.7714 0.0184, 0.0433 -0.8157 0.074, 0.0433 -0.7588 0.0317, 0.0433 -0.8147 0.0756, 0.0433 -0.7497 0.0476, 0.0433 -0.8142 0.0774, 0.0433 -0.7444 0.0651, 0.0433 -0.7933 0.1961, 0.0433 -0.7235 0.1838, 0.0433 -0.7875 0.2154, 0.0433 -0.7224 0.1873, 0.0433 -0.7775 0.2328, 0.0433 -0.7206 0.1905, 0.0433 -0.7637 0.2475, 0.0433 -0.7181 0.1932, 0.0433 -0.7469 0.2585, 0.0433 -0.715 0.1952, 0.0433 -0.728 0.2654, 0.0433 -0.7116 0.1964, -0.0433 -0.5906 0.2093, -0.0433 -0.5895 0.1969, -0.0433 -0.708 0.1969, -0.0433 -0.728 0.2654, -0.0433 -0.7116 0.1964, -0.0433 -0.7469 0.2585, -0.0433 -0.715 0.1952, -0.0433 -0.7637 0.2475, -0.0433 -0.7181 0.1932, -0.0433 -0.7775 0.2328, -0.0433 -0.7206 0.1905, -0.0433 -0.7875 0.2154, -0.0433 -0.7224 0.1873, -0.0433 -0.7933 0.1961, -0.0433 -0.7235 0.1838, -0.0433 -0.8142 0.0774, -0.0433 -0.7444 0.0651, -0.0433 -0.8147 0.0756, -0.0433 -0.7497 0.0476, -0.0433 -0.8157 0.074, -0.0433 -0.7588 0.0317, -0.0433 -0.8169 0.0727, -0.0433 -0.7714 0.0184, -0.0433 -0.8184 0.0717, -0.0433 -0.7866 0.0084, -0.0433 -0.8202 0.0711, -0.0433 -0.8038 0.0021, -0.0433 -0.822 0.0709, -0.0433 -0.822 0.0, -0.0433 -0.9646 0.0709, -0.0433 -0.9646 0.0, 0.1535 -0.5854 0.2677, 0.1535 -0.708 0.2677, 0.2402 -0.5854 0.2677, 0.2402 -0.708 0.2677, 0.2402 -0.708 0.1969, 0.2402 -0.5895 0.1969, 0.2402 -0.5906 0.2093, 0.2402 -0.9646 0.0709, 0.2402 -0.9646 0.0, 0.2402 -0.822 0.0709, 0.2402 -0.822 0.0, 0.2402 -0.8202 0.0711, 0.2402 -0.8038 0.0021, 0.2402 -0.8184 0.0717, 0.2402 -0.7866 0.0084, 0.2402 -0.8169 0.0727, 0.2402 -0.7714 0.0184, 0.2402 -0.8157 0.074, 0.2402 -0.7588 0.0317, 0.2402 -0.8147 0.0756, 0.2402 -0.7497 0.0476, 0.2402 -0.8142 0.0774, 0.2402 -0.7444 0.0651, 0.2402 -0.7933 0.1961, 0.2402 -0.7235 0.1838, 0.2402 -0.7875 0.2154, 0.2402 -0.7224 0.1873, 0.2402 -0.7775 0.2328, 0.2402 -0.7206 0.1905, 0.2402 -0.7637 0.2475, 0.2402 -0.7181 0.1932, 0.2402 -0.7469 0.2585, 0.2402 -0.715 0.1952, 0.2402 -0.728 0.2654, 0.2402 -0.7116 0.1964, 0.1535 -0.5906 0.2093, 0.1535 -0.5895 0.1969, 0.1535 -0.708 0.1969, 0.1535 -0.728 0.2654, 0.1535 -0.7116 0.1964, 0.1535 -0.7469 0.2585, 0.1535 -0.715 0.1952, 0.1535 -0.7637 0.2475, 0.1535 -0.7181 0.1932, 0.1535 -0.7775 0.2328, 0.1535 -0.7206 0.1905, 0.1535 -0.7875 0.2154, 0.1535 -0.7224 0.1873, 0.1535 -0.7933 0.1961, 0.1535 -0.7235 0.1838, 0.1535 -0.8142 0.0774, 0.1535 -0.7444 0.0651, 0.1535 -0.8147 0.0756, 0.1535 -0.7497 0.0476, 0.1535 -0.8157 0.074, 0.1535 -0.7588 0.0317, 0.1535 -0.8169 0.0727, 0.1535 -0.7714 0.0184, 0.1535 -0.8184 0.0717, 0.1535 -0.7866 0.0084, 0.1535 -0.8202 0.0711, 0.1535 -0.8038 0.0021, 0.1535 -0.822 0.0709, 0.1535 -0.822 0.0, 0.1535 -0.9646 0.0709, 0.1535 -0.9646 0.0, 0.3504 -0.5854 0.2677, 0.3504 -0.708 0.2677, 0.437 -0.5854 0.2677, 0.437 -0.708 0.2677, 0.437 -0.708 0.1969, 0.437 -0.5895 0.1969, 0.437 -0.5906 0.2093, 0.437 -0.9646 0.0709, 0.437 -0.9646 0.0, 0.437 -0.822 0.0709, 0.437 -0.822 0.0, 0.437 -0.8202 0.0711, 0.437 -0.8038 0.0021, 0.437 -0.8184 0.0717, 0.437 -0.7866 0.0084, 0.437 -0.8169 0.0727, 0.437 -0.7714 0.0184, 0.437 -0.8157 0.074, 0.437 -0.7588 0.0317, 0.437 -0.8147 0.0756, 0.437 -0.7497 0.0476, 0.437 -0.8142 0.0774, 0.437 -0.7444 0.0651, 0.437 -0.7933 0.1961, 0.437 -0.7235 0.1838, 0.437 -0.7875 0.2154, 0.437 -0.7224 0.1873, 0.437 -0.7775 0.2328, 0.437 -0.7206 0.1905, 0.437 -0.7637 0.2475, 0.437 -0.7181 0.1932, 0.437 -0.7469 0.2585, 0.437 -0.715 0.1952, 0.437 -0.728 0.2654, 0.437 -0.7116 0.1964, 0.3504 -0.5906 0.2093, 0.3504 -0.5895 0.1969, 0.3504 -0.708 0.1969, 0.3504 -0.728 0.2654, 0.3504 -0.7116 0.1964, 0.3504 -0.7469 0.2585, 0.3504 -0.715 0.1952, 0.3504 -0.7637 0.2475, 0.3504 -0.7181 0.1932, 0.3504 -0.7775 0.2328, 0.3504 -0.7206 0.1905, 0.3504 -0.7875 0.2154, 0.3504 -0.7224 0.1873, 0.3504 -0.7933 0.1961, 0.3504 -0.7235 0.1838, 0.3504 -0.8142 0.0774, 0.3504 -0.7444 0.0651, 0.3504 -0.8147 0.0756, 0.3504 -0.7497 0.0476, 0.3504 -0.8157 0.074, 0.3504 -0.7588 0.0317, 0.3504 -0.8169 0.0727, 0.3504 -0.7714 0.0184, 0.3504 -0.8184 0.0717, 0.3504 -0.7866 0.0084, 0.3504 -0.8202 0.0711, 0.3504 -0.8038 0.0021, 0.3504 -0.822 0.0709, 0.3504 -0.822 0.0, 0.3504 -0.9646 0.0709, 0.3504 -0.9646 0.0, -0.2402 -0.5854 0.2677, -0.2402 -0.708 0.2677, -0.1535 -0.5854 0.2677, -0.1535 -0.708 0.2677, -0.1535 -0.708 0.1969, -0.1535 -0.5895 0.1969, -0.1535 -0.5906 0.2093, -0.1535 -0.9646 0.0709, -0.1535 -0.9646 0.0, -0.1535 -0.822 0.0709, -0.1535 -0.822 0.0, -0.1535 -0.8202 0.0711, -0.1535 -0.8038 0.0021, -0.1535 -0.8184 0.0717, -0.1535 -0.7866 0.0084, -0.1535 -0.8169 0.0727, -0.1535 -0.7714 0.0184, -0.1535 -0.8157 0.074, -0.1535 -0.7588 0.0317, -0.1535 -0.8147 0.0756, -0.1535 -0.7497 0.0476, -0.1535 -0.8142 0.0774, -0.1535 -0.7444 0.0651, -0.1535 -0.7933 0.1961, -0.1535 -0.7235 0.1838, -0.1535 -0.7875 0.2154, -0.1535 -0.7224 0.1873, -0.1535 -0.7775 0.2328, -0.1535 -0.7206 0.1905, -0.1535 -0.7637 0.2475, -0.1535 -0.7181 0.1932, -0.1535 -0.7469 0.2585, -0.1535 -0.715 0.1952, -0.1535 -0.728 0.2654, -0.1535 -0.7116 0.1964, -0.2402 -0.5906 0.2093, -0.2402 -0.5895 0.1969, -0.2402 -0.708 0.1969, -0.2402 -0.728 0.2654, -0.2402 -0.7116 0.1964, -0.2402 -0.7469 0.2585, -0.2402 -0.715 0.1952, -0.2402 -0.7637 0.2475, -0.2402 -0.7181 0.1932, -0.2402 -0.7775 0.2328, -0.2402 -0.7206 0.1905, -0.2402 -0.7875 0.2154, -0.2402 -0.7224 0.1873, -0.2402 -0.7933 0.1961, -0.2402 -0.7235 0.1838, -0.2402 -0.8142 0.0774, -0.2402 -0.7444 0.0651, -0.2402 -0.8147 0.0756, -0.2402 -0.7497 0.0476, -0.2402 -0.8157 0.074, -0.2402 -0.7588 0.0317, -0.2402 -0.8169 0.0727, -0.2402 -0.7714 0.0184, -0.2402 -0.8184 0.0717, -0.2402 -0.7866 0.0084, -0.2402 -0.8202 0.0711, -0.2402 -0.8038 0.0021, -0.2402 -0.822 0.0709, -0.2402 -0.822 0.0, -0.2402 -0.9646 0.0709, -0.2402 -0.9646 0.0, -0.437 -0.5854 0.2677, -0.437 -0.708 0.2677, -0.3504 -0.5854 0.2677, -0.3504 -0.708 0.2677, -0.3504 -0.708 0.1969, -0.3504 -0.5895 0.1969, -0.3504 -0.5906 0.2093, -0.3504 -0.9646 0.0709, -0.3504 -0.9646 0.0, -0.3504 -0.822 0.0709, -0.3504 -0.822 0.0, -0.3504 -0.8202 0.0711, -0.3504 -0.8038 0.0021, -0.3504 -0.8184 0.0717, -0.3504 -0.7866 0.0084, -0.3504 -0.8169 0.0727, -0.3504 -0.7714 0.0184, -0.3504 -0.8157 0.074, -0.3504 -0.7588 0.0317, -0.3504 -0.8147 0.0756, -0.3504 -0.7497 0.0476, -0.3504 -0.8142 0.0774, -0.3504 -0.7444 0.0651, -0.3504 -0.7933 0.1961, -0.3504 -0.7235 0.1838, -0.3504 -0.7875 0.2154, -0.3504 -0.7224 0.1873, -0.3504 -0.7775 0.2328, -0.3504 -0.7206 0.1905, -0.3504 -0.7637 0.2475, -0.3504 -0.7181 0.1932, -0.3504 -0.7469 0.2585, -0.3504 -0.715 0.1952, -0.3504 -0.728 0.2654, -0.3504 -0.7116 0.1964, -0.437 -0.5906 0.2093, -0.437 -0.5895 0.1969, -0.437 -0.708 0.1969, -0.437 -0.728 0.2654, -0.437 -0.7116 0.1964, -0.437 -0.7469 0.2585, -0.437 -0.715 0.1952, -0.437 -0.7637 0.2475, -0.437 -0.7181 0.1932, -0.437 -0.7775 0.2328, -0.437 -0.7206 0.1905, -0.437 -0.7875 0.2154, -0.437 -0.7224 0.1873, -0.437 -0.7933 0.1961, -0.437 -0.7235 0.1838, -0.437 -0.8142 0.0774, -0.437 -0.7444 0.0651, -0.437 -0.8147 0.0756, -0.437 -0.7497 0.0476, -0.437 -0.8157 0.074, -0.437 -0.7588 0.0317, -0.437 -0.8169 0.0727, -0.437 -0.7714 0.0184, -0.437 -0.8184 0.0717, -0.437 -0.7866 0.0084, -0.437 -0.8202 0.0711, -0.437 -0.8038 0.0021, -0.437 -0.822 0.0709, -0.437 -0.822 0.0, -0.437 -0.9646 0.0709, -0.437 -0.9646 0.0, 0.0433 0.708 0.2677, -0.0433 0.708 0.2677, 0.0433 0.5854 0.2677, -0.0433 0.5854 0.2677, 0.0433 0.5906 0.2093, 0.0433 0.5895 0.1969, 0.0433 0.708 0.1969, 0.0433 0.9646 0.0, 0.0433 0.9646 0.0709, 0.0433 0.822 0.0, 0.0433 0.822 0.0709, 0.0433 0.8038 0.0021, 0.0433 0.8202 0.0711, 0.0433 0.7866 0.0084, 0.0433 0.8184 0.0717, 0.0433 0.7714 0.0184, 0.0433 0.8169 0.0727, 0.0433 0.7588 0.0317, 0.0433 0.8157 0.074, 0.0433 0.7497 0.0476, 0.0433 0.8147 0.0756, 0.0433 0.7444 0.0651, 0.0433 0.8142 0.0774, 0.0433 0.7235 0.1838, 0.0433 0.7933 0.1961, 0.0433 0.7224 0.1873, 0.0433 0.7875 0.2154, 0.0433 0.7206 0.1905, 0.0433 0.7775 0.2328, 0.0433 0.7181 0.1932, 0.0433 0.7637 0.2475, 0.0433 0.715 0.1952, 0.0433 0.7469 0.2585, 0.0433 0.7116 0.1964, 0.0433 0.728 0.2654, -0.0433 0.708 0.1969, -0.0433 0.5895 0.1969, -0.0433 0.5906 0.2093, -0.0433 0.7116 0.1964, -0.0433 0.728 0.2654, -0.0433 0.715 0.1952, -0.0433 0.7469 0.2585, -0.0433 0.7181 0.1932, -0.0433 0.7637 0.2475, -0.0433 0.7206 0.1905, -0.0433 0.7775 0.2328, -0.0433 0.7224 0.1873, -0.0433 0.7875 0.2154, -0.0433 0.7235 0.1838, -0.0433 0.7933 0.1961, -0.0433 0.7444 0.0651, -0.0433 0.8142 0.0774, -0.0433 0.7497 0.0476, -0.0433 0.8147 0.0756, -0.0433 0.7588 0.0317, -0.0433 0.8157 0.074, -0.0433 0.7714 0.0184, -0.0433 0.8169 0.0727, -0.0433 0.7866 0.0084, -0.0433 0.8184 0.0717, -0.0433 0.8038 0.0021, -0.0433 0.8202 0.0711, -0.0433 0.822 0.0, -0.0433 0.822 0.0709, -0.0433 0.9646 0.0, -0.0433 0.9646 0.0709, 0.2402 0.708 0.2677, 0.1535 0.708 0.2677, 0.2402 0.5854 0.2677, 0.1535 0.5854 0.2677, 0.2402 0.5906 0.2093, 0.2402 0.5895 0.1969, 0.2402 0.708 0.1969, 0.2402 0.9646 0.0, 0.2402 0.9646 0.0709, 0.2402 0.822 0.0, 0.2402 0.822 0.0709, 0.2402 0.8038 0.0021, 0.2402 0.8202 0.0711, 0.2402 0.7866 0.0084, 0.2402 0.8184 0.0717, 0.2402 0.7714 0.0184, 0.2402 0.8169 0.0727, 0.2402 0.7588 0.0317, 0.2402 0.8157 0.074, 0.2402 0.7497 0.0476, 0.2402 0.8147 0.0756, 0.2402 0.7444 0.0651, 0.2402 0.8142 0.0774, 0.2402 0.7235 0.1838, 0.2402 0.7933 0.1961, 0.2402 0.7224 0.1873, 0.2402 0.7875 0.2154, 0.2402 0.7206 0.1905, 0.2402 0.7775 0.2328, 0.2402 0.7181 0.1932, 0.2402 0.7637 0.2475, 0.2402 0.715 0.1952, 0.2402 0.7469 0.2585, 0.2402 0.7116 0.1964, 0.2402 0.728 0.2654, 0.1535 0.708 0.1969, 0.1535 0.5895 0.1969, 0.1535 0.5906 0.2093, 0.1535 0.7116 0.1964, 0.1535 0.728 0.2654, 0.1535 0.715 0.1952, 0.1535 0.7469 0.2585, 0.1535 0.7181 0.1932, 0.1535 0.7637 0.2475, 0.1535 0.7206 0.1905, 0.1535 0.7775 0.2328, 0.1535 0.7224 0.1873, 0.1535 0.7875 0.2154, 0.1535 0.7235 0.1838, 0.1535 0.7933 0.1961, 0.1535 0.7444 0.0651, 0.1535 0.8142 0.0774, 0.1535 0.7497 0.0476, 0.1535 0.8147 0.0756, 0.1535 0.7588 0.0317, 0.1535 0.8157 0.074, 0.1535 0.7714 0.0184, 0.1535 0.8169 0.0727, 0.1535 0.7866 0.0084, 0.1535 0.8184 0.0717, 0.1535 0.8038 0.0021, 0.1535 0.8202 0.0711, 0.1535 0.822 0.0, 0.1535 0.822 0.0709, 0.1535 0.9646 0.0, 0.1535 0.9646 0.0709, 0.437 0.708 0.2677, 0.3504 0.708 0.2677, 0.437 0.5854 0.2677, 0.3504 0.5854 0.2677, 0.437 0.5906 0.2093, 0.437 0.5895 0.1969, 0.437 0.708 0.1969, 0.437 0.9646 0.0, 0.437 0.9646 0.0709, 0.437 0.822 0.0, 0.437 0.822 0.0709, 0.437 0.8038 0.0021, 0.437 0.8202 0.0711, 0.437 0.7866 0.0084, 0.437 0.8184 0.0717, 0.437 0.7714 0.0184, 0.437 0.8169 0.0727, 0.437 0.7588 0.0317, 0.437 0.8157 0.074, 0.437 0.7497 0.0476, 0.437 0.8147 0.0756, 0.437 0.7444 0.0651, 0.437 0.8142 0.0774, 0.437 0.7235 0.1838, 0.437 0.7933 0.1961, 0.437 0.7224 0.1873, 0.437 0.7875 0.2154, 0.437 0.7206 0.1905, 0.437 0.7775 0.2328, 0.437 0.7181 0.1932, 0.437 0.7637 0.2475, 0.437 0.715 0.1952, 0.437 0.7469 0.2585, 0.437 0.7116 0.1964, 0.437 0.728 0.2654, 0.3504 0.708 0.1969, 0.3504 0.5895 0.1969, 0.3504 0.5906 0.2093, 0.3504 0.7116 0.1964, 0.3504 0.728 0.2654, 0.3504 0.715 0.1952, 0.3504 0.7469 0.2585, 0.3504 0.7181 0.1932, 0.3504 0.7637 0.2475, 0.3504 0.7206 0.1905, 0.3504 0.7775 0.2328, 0.3504 0.7224 0.1873, 0.3504 0.7875 0.2154, 0.3504 0.7235 0.1838, 0.3504 0.7933 0.1961, 0.3504 0.7444 0.0651, 0.3504 0.8142 0.0774, 0.3504 0.7497 0.0476, 0.3504 0.8147 0.0756, 0.3504 0.7588 0.0317, 0.3504 0.8157 0.074, 0.3504 0.7714 0.0184, 0.3504 0.8169 0.0727, 0.3504 0.7866 0.0084, 0.3504 0.8184 0.0717, 0.3504 0.8038 0.0021, 0.3504 0.8202 0.0711, 0.3504 0.822 0.0, 0.3504 0.822 0.0709, 0.3504 0.9646 0.0, 0.3504 0.9646 0.0709, -0.1535 0.708 0.2677, -0.2402 0.708 0.2677, -0.1535 0.5854 0.2677, -0.2402 0.5854 0.2677, -0.1535 0.5906 0.2093, -0.1535 0.5895 0.1969, -0.1535 0.708 0.1969, -0.1535 0.9646 0.0, -0.1535 0.9646 0.0709, -0.1535 0.822 0.0, -0.1535 0.822 0.0709, -0.1535 0.8038 0.0021, -0.1535 0.8202 0.0711, -0.1535 0.7866 0.0084, -0.1535 0.8184 0.0717, -0.1535 0.7714 0.0184, -0.1535 0.8169 0.0727, -0.1535 0.7588 0.0317, -0.1535 0.8157 0.074, -0.1535 0.7497 0.0476, -0.1535 0.8147 0.0756, -0.1535 0.7444 0.0651, -0.1535 0.8142 0.0774, -0.1535 0.7235 0.1838, -0.1535 0.7933 0.1961, -0.1535 0.7224 0.1873, -0.1535 0.7875 0.2154, -0.1535 0.7206 0.1905, -0.1535 0.7775 0.2328, -0.1535 0.7181 0.1932, -0.1535 0.7637 0.2475, -0.1535 0.715 0.1952, -0.1535 0.7469 0.2585, -0.1535 0.7116 0.1964, -0.1535 0.728 0.2654, -0.2402 0.708 0.1969, -0.2402 0.5895 0.1969, -0.2402 0.5906 0.2093, -0.2402 0.7116 0.1964, -0.2402 0.728 0.2654, -0.2402 0.715 0.1952, -0.2402 0.7469 0.2585, -0.2402 0.7181 0.1932, -0.2402 0.7637 0.2475, -0.2402 0.7206 0.1905, -0.2402 0.7775 0.2328, -0.2402 0.7224 0.1873, -0.2402 0.7875 0.2154, -0.2402 0.7235 0.1838, -0.2402 0.7933 0.1961, -0.2402 0.7444 0.0651, -0.2402 0.8142 0.0774, -0.2402 0.7497 0.0476, -0.2402 0.8147 0.0756, -0.2402 0.7588 0.0317, -0.2402 0.8157 0.074, -0.2402 0.7714 0.0184, -0.2402 0.8169 0.0727, -0.2402 0.7866 0.0084, -0.2402 0.8184 0.0717, -0.2402 0.8038 0.0021, -0.2402 0.8202 0.0711, -0.2402 0.822 0.0, -0.2402 0.822 0.0709, -0.2402 0.9646 0.0, -0.2402 0.9646 0.0709, -0.3504 0.708 0.2677, -0.437 0.708 0.2677, -0.3504 0.5854 0.2677, -0.437 0.5854 0.2677, -0.3504 0.5906 0.2093, -0.3504 0.5895 0.1969, -0.3504 0.708 0.1969, -0.3504 0.9646 0.0, -0.3504 0.9646 0.0709, -0.3504 0.822 0.0, -0.3504 0.822 0.0709, -0.3504 0.8038 0.0021, -0.3504 0.8202 0.0711, -0.3504 0.7866 0.0084, -0.3504 0.8184 0.0717, -0.3504 0.7714 0.0184, -0.3504 0.8169 0.0727, -0.3504 0.7588 0.0317, -0.3504 0.8157 0.074, -0.3504 0.7497 0.0476, -0.3504 0.8147 0.0756, -0.3504 0.7444 0.0651, -0.3504 0.8142 0.0774, -0.3504 0.7235 0.1838, -0.3504 0.7933 0.1961, -0.3504 0.7224 0.1873, -0.3504 0.7875 0.2154, -0.3504 0.7206 0.1905, -0.3504 0.7775 0.2328, -0.3504 0.7181 0.1932, -0.3504 0.7637 0.2475, -0.3504 0.715 0.1952, -0.3504 0.7469 0.2585, -0.3504 0.7116 0.1964, -0.3504 0.728 0.2654, -0.437 0.708 0.1969, -0.437 0.5895 0.1969, -0.437 0.5906 0.2093, -0.437 0.7116 0.1964, -0.437 0.728 0.2654, -0.437 0.715 0.1952, -0.437 0.7469 0.2585, -0.437 0.7181 0.1932, -0.437 0.7637 0.2475, -0.437 0.7206 0.1905, -0.437 0.7775 0.2328, -0.437 0.7224 0.1873, -0.437 0.7875 0.2154, -0.437 0.7235 0.1838, -0.437 0.7933 0.1961, -0.437 0.7444 0.0651, -0.437 0.8142 0.0774, -0.437 0.7497 0.0476, -0.437 0.8147 0.0756, -0.437 0.7588 0.0317, -0.437 0.8157 0.074, -0.437 0.7714 0.0184, -0.437 0.8169 0.0727, -0.437 0.7866 0.0084, -0.437 0.8184 0.0717, -0.437 0.8038 0.0021, -0.437 0.8202 0.0711, -0.437 0.822 0.0, -0.437 0.822 0.0709, -0.437 0.9646 0.0, -0.437 0.9646 0.0709
            ]
        }
        coordIndex [
            0,1,2,-1,2,1,3,-1,4,5,6,-1,7,8,9,-1,9,8,10,-1,9,10,11,-1,11,10,12,-1,11,12,13,-1,13,12,14,-1,13,14,15,-1,15,14,16,-1,15,16,17,-1,17,16,18,-1,17,18,19,-1,19,18,20,-1,19,20,21,-1,21,20,22,-1,21,22,23,-1,23,22,24,-1,23,24,25,-1,25,24,26,-1,25,26,27,-1,27,26,28,-1,27,28,29,-1,29,28,30,-1,29,30,31,-1,31,30,32,-1,31,32,33,-1,33,32,34,-1,33,34,3,-1,3,34,4,-1,3,4,2,-1,2,4,6,-1,35,36,37,-1,0,35,1,-1,1,35,37,-1,1,37,38,-1,38,37,39,-1,38,39,40,-1,40,39,41,-1,40,41,42,-1,42,41,43,-1,42,43,44,-1,44,43,45,-1,44,45,46,-1,46,45,47,-1,46,47,48,-1,48,47,49,-1,48,49,50,-1,50,49,51,-1,50,51,52,-1,52,51,53,-1,52,53,54,-1,54,53,55,-1,54,55,56,-1,56,55,57,-1,56,57,58,-1,58,57,59,-1,58,59,60,-1,60,59,61,-1,60,61,62,-1,62,61,63,-1,62,63,64,-1,64,63,65,-1,7,9,64,-1,64,9,62,-1,8,7,65,-1,65,7,64,-1,10,8,63,-1,63,8,65,-1,10,63,61,-1,10,61,12,-1,12,61,59,-1,12,59,14,-1,14,59,57,-1,14,57,16,-1,16,57,55,-1,16,55,18,-1,18,55,53,-1,18,53,20,-1,20,53,51,-1,20,51,22,-1,24,22,49,-1,49,22,51,-1,24,49,26,-1,26,49,47,-1,26,47,28,-1,28,47,45,-1,28,45,30,-1,30,45,43,-1,30,43,32,-1,32,43,41,-1,32,41,34,-1,34,41,39,-1,34,39,4,-1,4,39,37,-1,5,4,36,-1,36,4,37,-1,3,1,38,-1,3,38,33,-1,33,38,40,-1,33,40,31,-1,31,40,42,-1,31,42,29,-1,29,42,44,-1,29,44,27,-1,27,44,46,-1,27,46,25,-1,25,46,48,-1,25,48,23,-1,21,23,50,-1,50,23,48,-1,21,50,19,-1,19,50,52,-1,19,52,17,-1,17,52,54,-1,17,54,15,-1,15,54,56,-1,15,56,13,-1,13,56,58,-1,13,58,11,-1,11,58,60,-1,11,60,9,-1,9,60,62,-1,66,67,68,-1,68,67,69,-1,70,71,72,-1,73,74,75,-1,75,74,76,-1,75,76,77,-1,77,76,78,-1,77,78,79,-1,79,78,80,-1,79,80,81,-1,81,80,82,-1,81,82,83,-1,83,82,84,-1,83,84,85,-1,85,84,86,-1,85,86,87,-1,87,86,88,-1,87,88,89,-1,89,88,90,-1,89,90,91,-1,91,90,92,-1,91,92,93,-1,93,92,94,-1,93,94,95,-1,95,94,96,-1,95,96,97,-1,97,96,98,-1,97,98,99,-1,99,98,100,-1,99,100,69,-1,69,100,70,-1,69,70,68,-1,68,70,72,-1,101,102,103,-1,66,101,67,-1,67,101,103,-1,67,103,104,-1,104,103,105,-1,104,105,106,-1,106,105,107,-1,106,107,108,-1,108,107,109,-1,108,109,110,-1,110,109,111,-1,110,111,112,-1,112,111,113,-1,112,113,114,-1,114,113,115,-1,114,115,116,-1,116,115,117,-1,116,117,118,-1,118,117,119,-1,118,119,120,-1,120,119,121,-1,120,121,122,-1,122,121,123,-1,122,123,124,-1,124,123,125,-1,124,125,126,-1,126,125,127,-1,126,127,128,-1,128,127,129,-1,128,129,130,-1,130,129,131,-1,73,75,130,-1,130,75,128,-1,74,73,131,-1,131,73,130,-1,76,74,129,-1,129,74,131,-1,76,129,127,-1,76,127,78,-1,78,127,125,-1,78,125,80,-1,80,125,123,-1,80,123,82,-1,82,123,121,-1,82,121,84,-1,84,121,119,-1,84,119,86,-1,86,119,117,-1,86,117,88,-1,90,88,115,-1,115,88,117,-1,90,115,92,-1,92,115,113,-1,92,113,94,-1,94,113,111,-1,94,111,96,-1,96,111,109,-1,96,109,98,-1,98,109,107,-1,98,107,100,-1,100,107,105,-1,100,105,70,-1,70,105,103,-1,71,70,102,-1,102,70,103,-1,69,67,104,-1,69,104,99,-1,99,104,106,-1,99,106,97,-1,97,106,108,-1,97,108,95,-1,95,108,110,-1,95,110,93,-1,93,110,112,-1,93,112,91,-1,91,112,114,-1,91,114,89,-1,87,89,116,-1,116,89,114,-1,87,116,85,-1,85,116,118,-1,85,118,83,-1,83,118,120,-1,83,120,81,-1,81,120,122,-1,81,122,79,-1,79,122,124,-1,79,124,77,-1,77,124,126,-1,77,126,75,-1,75,126,128,-1,132,133,134,-1,134,133,135,-1,136,137,138,-1,139,140,141,-1,141,140,142,-1,141,142,143,-1,143,142,144,-1,143,144,145,-1,145,144,146,-1,145,146,147,-1,147,146,148,-1,147,148,149,-1,149,148,150,-1,149,150,151,-1,151,150,152,-1,151,152,153,-1,153,152,154,-1,153,154,155,-1,155,154,156,-1,155,156,157,-1,157,156,158,-1,157,158,159,-1,159,158,160,-1,159,160,161,-1,161,160,162,-1,161,162,163,-1,163,162,164,-1,163,164,165,-1,165,164,166,-1,165,166,135,-1,135,166,136,-1,135,136,134,-1,134,136,138,-1,167,168,169,-1,132,167,133,-1,133,167,169,-1,133,169,170,-1,170,169,171,-1,170,171,172,-1,172,171,173,-1,172,173,174,-1,174,173,175,-1,174,175,176,-1,176,175,177,-1,176,177,178,-1,178,177,179,-1,178,179,180,-1,180,179,181,-1,180,181,182,-1,182,181,183,-1,182,183,184,-1,184,183,185,-1,184,185,186,-1,186,185,187,-1,186,187,188,-1,188,187,189,-1,188,189,190,-1,190,189,191,-1,190,191,192,-1,192,191,193,-1,192,193,194,-1,194,193,195,-1,194,195,196,-1,196,195,197,-1,139,141,196,-1,196,141,194,-1,140,139,197,-1,197,139,196,-1,142,140,195,-1,195,140,197,-1,142,195,193,-1,142,193,144,-1,144,193,191,-1,144,191,146,-1,146,191,189,-1,146,189,148,-1,148,189,187,-1,148,187,150,-1,150,187,185,-1,150,185,152,-1,152,185,183,-1,152,183,154,-1,156,154,181,-1,181,154,183,-1,156,181,158,-1,158,181,179,-1,158,179,160,-1,160,179,177,-1,160,177,162,-1,162,177,175,-1,162,175,164,-1,164,175,173,-1,164,173,166,-1,166,173,171,-1,166,171,136,-1,136,171,169,-1,137,136,168,-1,168,136,169,-1,135,133,170,-1,135,170,165,-1,165,170,172,-1,165,172,163,-1,163,172,174,-1,163,174,161,-1,161,174,176,-1,161,176,159,-1,159,176,178,-1,159,178,157,-1,157,178,180,-1,157,180,155,-1,153,155,182,-1,182,155,180,-1,153,182,151,-1,151,182,184,-1,151,184,149,-1,149,184,186,-1,149,186,147,-1,147,186,188,-1,147,188,145,-1,145,188,190,-1,145,190,143,-1,143,190,192,-1,143,192,141,-1,141,192,194,-1,198,199,200,-1,200,199,201,-1,202,203,204,-1,205,206,207,-1,207,206,208,-1,207,208,209,-1,209,208,210,-1,209,210,211,-1,211,210,212,-1,211,212,213,-1,213,212,214,-1,213,214,215,-1,215,214,216,-1,215,216,217,-1,217,216,218,-1,217,218,219,-1,219,218,220,-1,219,220,221,-1,221,220,222,-1,221,222,223,-1,223,222,224,-1,223,224,225,-1,225,224,226,-1,225,226,227,-1,227,226,228,-1,227,228,229,-1,229,228,230,-1,229,230,231,-1,231,230,232,-1,231,232,201,-1,201,232,202,-1,201,202,200,-1,200,202,204,-1,233,234,235,-1,198,233,199,-1,199,233,235,-1,199,235,236,-1,236,235,237,-1,236,237,238,-1,238,237,239,-1,238,239,240,-1,240,239,241,-1,240,241,242,-1,242,241,243,-1,242,243,244,-1,244,243,245,-1,244,245,246,-1,246,245,247,-1,246,247,248,-1,248,247,249,-1,248,249,250,-1,250,249,251,-1,250,251,252,-1,252,251,253,-1,252,253,254,-1,254,253,255,-1,254,255,256,-1,256,255,257,-1,256,257,258,-1,258,257,259,-1,258,259,260,-1,260,259,261,-1,260,261,262,-1,262,261,263,-1,205,207,262,-1,262,207,260,-1,206,205,263,-1,263,205,262,-1,208,206,261,-1,261,206,263,-1,208,261,259,-1,208,259,210,-1,210,259,257,-1,210,257,212,-1,212,257,255,-1,212,255,214,-1,214,255,253,-1,214,253,216,-1,216,253,251,-1,216,251,218,-1,218,251,249,-1,218,249,220,-1,222,220,247,-1,247,220,249,-1,222,247,224,-1,224,247,245,-1,224,245,226,-1,226,245,243,-1,226,243,228,-1,228,243,241,-1,228,241,230,-1,230,241,239,-1,230,239,232,-1,232,239,237,-1,232,237,202,-1,202,237,235,-1,203,202,234,-1,234,202,235,-1,201,199,236,-1,201,236,231,-1,231,236,238,-1,231,238,229,-1,229,238,240,-1,229,240,227,-1,227,240,242,-1,227,242,225,-1,225,242,244,-1,225,244,223,-1,223,244,246,-1,223,246,221,-1,219,221,248,-1,248,221,246,-1,219,248,217,-1,217,248,250,-1,217,250,215,-1,215,250,252,-1,215,252,213,-1,213,252,254,-1,213,254,211,-1,211,254,256,-1,211,256,209,-1,209,256,258,-1,209,258,207,-1,207,258,260,-1,264,265,266,-1,266,265,267,-1,268,269,270,-1,271,272,273,-1,273,272,274,-1,273,274,275,-1,275,274,276,-1,275,276,277,-1,277,276,278,-1,277,278,279,-1,279,278,280,-1,279,280,281,-1,281,280,282,-1,281,282,283,-1,283,282,284,-1,283,284,285,-1,285,284,286,-1,285,286,287,-1,287,286,288,-1,287,288,289,-1,289,288,290,-1,289,290,291,-1,291,290,292,-1,291,292,293,-1,293,292,294,-1,293,294,295,-1,295,294,296,-1,295,296,297,-1,297,296,298,-1,297,298,267,-1,267,298,268,-1,267,268,266,-1,266,268,270,-1,299,300,301,-1,264,299,265,-1,265,299,301,-1,265,301,302,-1,302,301,303,-1,302,303,304,-1,304,303,305,-1,304,305,306,-1,306,305,307,-1,306,307,308,-1,308,307,309,-1,308,309,310,-1,310,309,311,-1,310,311,312,-1,312,311,313,-1,312,313,314,-1,314,313,315,-1,314,315,316,-1,316,315,317,-1,316,317,318,-1,318,317,319,-1,318,319,320,-1,320,319,321,-1,320,321,322,-1,322,321,323,-1,322,323,324,-1,324,323,325,-1,324,325,326,-1,326,325,327,-1,326,327,328,-1,328,327,329,-1,271,273,328,-1,328,273,326,-1,272,271,329,-1,329,271,328,-1,274,272,327,-1,327,272,329,-1,274,327,325,-1,274,325,276,-1,276,325,323,-1,276,323,278,-1,278,323,321,-1,278,321,280,-1,280,321,319,-1,280,319,282,-1,282,319,317,-1,282,317,284,-1,284,317,315,-1,284,315,286,-1,288,286,313,-1,313,286,315,-1,288,313,290,-1,290,313,311,-1,290,311,292,-1,292,311,309,-1,292,309,294,-1,294,309,307,-1,294,307,296,-1,296,307,305,-1,296,305,298,-1,298,305,303,-1,298,303,268,-1,268,303,301,-1,269,268,300,-1,300,268,301,-1,267,265,302,-1,267,302,297,-1,297,302,304,-1,297,304,295,-1,295,304,306,-1,295,306,293,-1,293,306,308,-1,293,308,291,-1,291,308,310,-1,291,310,289,-1,289,310,312,-1,289,312,287,-1,285,287,314,-1,314,287,312,-1,285,314,283,-1,283,314,316,-1,283,316,281,-1,281,316,318,-1,281,318,279,-1,279,318,320,-1,279,320,277,-1,277,320,322,-1,277,322,275,-1,275,322,324,-1,275,324,273,-1,273,324,326,-1,330,331,332,-1,332,331,333,-1,334,335,336,-1,337,338,339,-1,339,338,340,-1,339,340,341,-1,341,340,342,-1,341,342,343,-1,343,342,344,-1,343,344,345,-1,345,344,346,-1,345,346,347,-1,347,346,348,-1,347,348,349,-1,349,348,350,-1,349,350,351,-1,351,350,352,-1,351,352,353,-1,353,352,354,-1,353,354,355,-1,355,354,356,-1,355,356,357,-1,357,356,358,-1,357,358,359,-1,359,358,360,-1,359,360,361,-1,361,360,362,-1,361,362,363,-1,363,362,364,-1,363,364,336,-1,336,364,330,-1,336,330,334,-1,334,330,332,-1,365,366,367,-1,367,333,365,-1,365,333,331,-1,365,331,368,-1,368,331,369,-1,368,369,370,-1,370,369,371,-1,370,371,372,-1,372,371,373,-1,372,373,374,-1,374,373,375,-1,374,375,376,-1,376,375,377,-1,376,377,378,-1,378,377,379,-1,378,379,380,-1,380,379,381,-1,380,381,382,-1,382,381,383,-1,382,383,384,-1,384,383,385,-1,384,385,386,-1,386,385,387,-1,386,387,388,-1,388,387,389,-1,388,389,390,-1,390,389,391,-1,390,391,392,-1,392,391,393,-1,392,393,394,-1,394,393,395,-1,340,338,393,-1,393,338,395,-1,340,393,342,-1,342,393,391,-1,342,391,344,-1,344,391,389,-1,344,389,346,-1,346,389,387,-1,346,387,348,-1,348,387,385,-1,348,385,350,-1,350,385,383,-1,350,383,352,-1,352,383,381,-1,354,352,379,-1,379,352,381,-1,354,379,377,-1,354,377,356,-1,356,377,375,-1,356,375,358,-1,358,375,373,-1,358,373,360,-1,360,373,371,-1,360,371,362,-1,362,371,369,-1,362,369,364,-1,364,369,331,-1,364,331,330,-1,365,336,366,-1,366,336,335,-1,336,365,363,-1,363,365,368,-1,363,368,361,-1,361,368,370,-1,361,370,359,-1,359,370,372,-1,359,372,357,-1,357,372,374,-1,357,374,355,-1,355,374,376,-1,355,376,353,-1,353,376,378,-1,351,353,380,-1,380,353,378,-1,351,380,382,-1,351,382,349,-1,349,382,384,-1,349,384,347,-1,347,384,386,-1,347,386,345,-1,345,386,388,-1,345,388,343,-1,343,388,390,-1,343,390,341,-1,341,390,392,-1,341,392,339,-1,337,339,394,-1,394,339,392,-1,338,337,395,-1,395,337,394,-1,396,397,398,-1,398,397,399,-1,400,401,402,-1,403,404,405,-1,405,404,406,-1,405,406,407,-1,407,406,408,-1,407,408,409,-1,409,408,410,-1,409,410,411,-1,411,410,412,-1,411,412,413,-1,413,412,414,-1,413,414,415,-1,415,414,416,-1,415,416,417,-1,417,416,418,-1,417,418,419,-1,419,418,420,-1,419,420,421,-1,421,420,422,-1,421,422,423,-1,423,422,424,-1,423,424,425,-1,425,424,426,-1,425,426,427,-1,427,426,428,-1,427,428,429,-1,429,428,430,-1,429,430,402,-1,402,430,396,-1,402,396,400,-1,400,396,398,-1,431,432,433,-1,433,399,431,-1,431,399,397,-1,431,397,434,-1,434,397,435,-1,434,435,436,-1,436,435,437,-1,436,437,438,-1,438,437,439,-1,438,439,440,-1,440,439,441,-1,440,441,442,-1,442,441,443,-1,442,443,444,-1,444,443,445,-1,444,445,446,-1,446,445,447,-1,446,447,448,-1,448,447,449,-1,448,449,450,-1,450,449,451,-1,450,451,452,-1,452,451,453,-1,452,453,454,-1,454,453,455,-1,454,455,456,-1,456,455,457,-1,456,457,458,-1,458,457,459,-1,458,459,460,-1,460,459,461,-1,406,404,459,-1,459,404,461,-1,406,459,408,-1,408,459,457,-1,408,457,410,-1,410,457,455,-1,410,455,412,-1,412,455,453,-1,412,453,414,-1,414,453,451,-1,414,451,416,-1,416,451,449,-1,416,449,418,-1,418,449,447,-1,420,418,445,-1,445,418,447,-1,420,445,443,-1,420,443,422,-1,422,443,441,-1,422,441,424,-1,424,441,439,-1,424,439,426,-1,426,439,437,-1,426,437,428,-1,428,437,435,-1,428,435,430,-1,430,435,397,-1,430,397,396,-1,431,402,432,-1,432,402,401,-1,402,431,429,-1,429,431,434,-1,429,434,427,-1,427,434,436,-1,427,436,425,-1,425,436,438,-1,425,438,423,-1,423,438,440,-1,423,440,421,-1,421,440,442,-1,421,442,419,-1,419,442,444,-1,417,419,446,-1,446,419,444,-1,417,446,448,-1,417,448,415,-1,415,448,450,-1,415,450,413,-1,413,450,452,-1,413,452,411,-1,411,452,454,-1,411,454,409,-1,409,454,456,-1,409,456,407,-1,407,456,458,-1,407,458,405,-1,403,405,460,-1,460,405,458,-1,404,403,461,-1,461,403,460,-1,462,463,464,-1,464,463,465,-1,466,467,468,-1,469,470,471,-1,471,470,472,-1,471,472,473,-1,473,472,474,-1,473,474,475,-1,475,474,476,-1,475,476,477,-1,477,476,478,-1,477,478,479,-1,479,478,480,-1,479,480,481,-1,481,480,482,-1,481,482,483,-1,483,482,484,-1,483,484,485,-1,485,484,486,-1,485,486,487,-1,487,486,488,-1,487,488,489,-1,489,488,490,-1,489,490,491,-1,491,490,492,-1,491,492,493,-1,493,492,494,-1,493,494,495,-1,495,494,496,-1,495,496,468,-1,468,496,462,-1,468,462,466,-1,466,462,464,-1,497,498,499,-1,499,465,497,-1,497,465,463,-1,497,463,500,-1,500,463,501,-1,500,501,502,-1,502,501,503,-1,502,503,504,-1,504,503,505,-1,504,505,506,-1,506,505,507,-1,506,507,508,-1,508,507,509,-1,508,509,510,-1,510,509,511,-1,510,511,512,-1,512,511,513,-1,512,513,514,-1,514,513,515,-1,514,515,516,-1,516,515,517,-1,516,517,518,-1,518,517,519,-1,518,519,520,-1,520,519,521,-1,520,521,522,-1,522,521,523,-1,522,523,524,-1,524,523,525,-1,524,525,526,-1,526,525,527,-1,472,470,525,-1,525,470,527,-1,472,525,474,-1,474,525,523,-1,474,523,476,-1,476,523,521,-1,476,521,478,-1,478,521,519,-1,478,519,480,-1,480,519,517,-1,480,517,482,-1,482,517,515,-1,482,515,484,-1,484,515,513,-1,486,484,511,-1,511,484,513,-1,486,511,509,-1,486,509,488,-1,488,509,507,-1,488,507,490,-1,490,507,505,-1,490,505,492,-1,492,505,503,-1,492,503,494,-1,494,503,501,-1,494,501,496,-1,496,501,463,-1,496,463,462,-1,497,468,498,-1,498,468,467,-1,468,497,495,-1,495,497,500,-1,495,500,493,-1,493,500,502,-1,493,502,491,-1,491,502,504,-1,491,504,489,-1,489,504,506,-1,489,506,487,-1,487,506,508,-1,487,508,485,-1,485,508,510,-1,483,485,512,-1,512,485,510,-1,483,512,514,-1,483,514,481,-1,481,514,516,-1,481,516,479,-1,479,516,518,-1,479,518,477,-1,477,518,520,-1,477,520,475,-1,475,520,522,-1,475,522,473,-1,473,522,524,-1,473,524,471,-1,469,471,526,-1,526,471,524,-1,470,469,527,-1,527,469,526,-1,528,529,530,-1,530,529,531,-1,532,533,534,-1,535,536,537,-1,537,536,538,-1,537,538,539,-1,539,538,540,-1,539,540,541,-1,541,540,542,-1,541,542,543,-1,543,542,544,-1,543,544,545,-1,545,544,546,-1,545,546,547,-1,547,546,548,-1,547,548,549,-1,549,548,550,-1,549,550,551,-1,551,550,552,-1,551,552,553,-1,553,552,554,-1,553,554,555,-1,555,554,556,-1,555,556,557,-1,557,556,558,-1,557,558,559,-1,559,558,560,-1,559,560,561,-1,561,560,562,-1,561,562,534,-1,534,562,528,-1,534,528,532,-1,532,528,530,-1,563,564,565,-1,565,531,563,-1,563,531,529,-1,563,529,566,-1,566,529,567,-1,566,567,568,-1,568,567,569,-1,568,569,570,-1,570,569,571,-1,570,571,572,-1,572,571,573,-1,572,573,574,-1,574,573,575,-1,574,575,576,-1,576,575,577,-1,576,577,578,-1,578,577,579,-1,578,579,580,-1,580,579,581,-1,580,581,582,-1,582,581,583,-1,582,583,584,-1,584,583,585,-1,584,585,586,-1,586,585,587,-1,586,587,588,-1,588,587,589,-1,588,589,590,-1,590,589,591,-1,590,591,592,-1,592,591,593,-1,538,536,591,-1,591,536,593,-1,538,591,540,-1,540,591,589,-1,540,589,542,-1,542,589,587,-1,542,587,544,-1,544,587,585,-1,544,585,546,-1,546,585,583,-1,546,583,548,-1,548,583,581,-1,548,581,550,-1,550,581,579,-1,552,550,577,-1,577,550,579,-1,552,577,575,-1,552,575,554,-1,554,575,573,-1,554,573,556,-1,556,573,571,-1,556,571,558,-1,558,571,569,-1,558,569,560,-1,560,569,567,-1,560,567,562,-1,562,567,529,-1,562,529,528,-1,563,534,564,-1,564,534,533,-1,534,563,561,-1,561,563,566,-1,561,566,559,-1,559,566,568,-1,559,568,557,-1,557,568,570,-1,557,570,555,-1,555,570,572,-1,555,572,553,-1,553,572,574,-1,553,574,551,-1,551,574,576,-1,549,551,578,-1,578,551,576,-1,549,578,580,-1,549,580,547,-1,547,580,582,-1,547,582,545,-1,545,582,584,-1,545,584,543,-1,543,584,586,-1,543,586,541,-1,541,586,588,-1,541,588,539,-1,539,588,590,-1,539,590,537,-1,535,537,592,-1,592,537,590,-1,536,535,593,-1,593,535,592,-1,594,595,596,-1,596,595,597,-1,598,599,600,-1,601,602,603,-1,603,602,604,-1,603,604,605,-1,605,604,606,-1,605,606,607,-1,607,606,608,-1,607,608,609,-1,609,608,610,-1,609,610,611,-1,611,610,612,-1,611,612,613,-1,613,612,614,-1,613,614,615,-1,615,614,616,-1,615,616,617,-1,617,616,618,-1,617,618,619,-1,619,618,620,-1,619,620,621,-1,621,620,622,-1,621,622,623,-1,623,622,624,-1,623,624,625,-1,625,624,626,-1,625,626,627,-1,627,626,628,-1,627,628,600,-1,600,628,594,-1,600,594,598,-1,598,594,596,-1,629,630,631,-1,631,597,629,-1,629,597,595,-1,629,595,632,-1,632,595,633,-1,632,633,634,-1,634,633,635,-1,634,635,636,-1,636,635,637,-1,636,637,638,-1,638,637,639,-1,638,639,640,-1,640,639,641,-1,640,641,642,-1,642,641,643,-1,642,643,644,-1,644,643,645,-1,644,645,646,-1,646,645,647,-1,646,647,648,-1,648,647,649,-1,648,649,650,-1,650,649,651,-1,650,651,652,-1,652,651,653,-1,652,653,654,-1,654,653,655,-1,654,655,656,-1,656,655,657,-1,656,657,658,-1,658,657,659,-1,604,602,657,-1,657,602,659,-1,604,657,606,-1,606,657,655,-1,606,655,608,-1,608,655,653,-1,608,653,610,-1,610,653,651,-1,610,651,612,-1,612,651,649,-1,612,649,614,-1,614,649,647,-1,614,647,616,-1,616,647,645,-1,618,616,643,-1,643,616,645,-1,618,643,641,-1,618,641,620,-1,620,641,639,-1,620,639,622,-1,622,639,637,-1,622,637,624,-1,624,637,635,-1,624,635,626,-1,626,635,633,-1,626,633,628,-1,628,633,595,-1,628,595,594,-1,629,600,630,-1,630,600,599,-1,600,629,627,-1,627,629,632,-1,627,632,625,-1,625,632,634,-1,625,634,623,-1,623,634,636,-1,623,636,621,-1,621,636,638,-1,621,638,619,-1,619,638,640,-1,619,640,617,-1,617,640,642,-1,615,617,644,-1,644,617,642,-1,615,644,646,-1,615,646,613,-1,613,646,648,-1,613,648,611,-1,611,648,650,-1,611,650,609,-1,609,650,652,-1,609,652,607,-1,607,652,654,-1,607,654,605,-1,605,654,656,-1,605,656,603,-1,601,603,658,-1,658,603,656,-1,602,601,659,-1,659,601,658,-1,
        ]
    }
}
Shape{
    appearance Appearance {
        material  Material 	{
            diffuseColor 0.7529411764705882 0.7529411764705882 0.7529411764705882
            specularColor 0.3764705882352941 0.3764705882352941 0.3764705882352941
            ambientIntensity 0.7529
            transparency 0.0
            shininess 0.5
        }
    }
    geometry IndexedFaceSet {
        ccw TRUE
        solid FALSE
        coord DEF co Coordinate {
            point [
                0.411 0.3307 0.04, 0.4488 0.3307 0.04, 0.4488 0.3307 0.0, -0.0374 0.3307 0.04, -0.4488 0.3307 0.0, -0.4488 0.3307 0.04, 0.4488 -0.3307 0.04, 0.411 -0.3307 0.04, 0.4488 -0.3307 0.0, -0.0374 -0.3307 0.04, -0.4488 -0.3307 0.0, -0.4488 -0.3307 0.04, -0.3701 0.2913 0.0, -0.4488 0.2913 0.0, 0.3701 -0.2913 0.0, 0.4488 -0.2913 0.0, 0.4488 0.2913 0.0, 0.3701 0.2913 0.0, -0.4488 -0.2913 0.0, -0.3701 -0.2913 0.0, -0.3701 0.2913 0.04, -0.4488 0.2913 0.04, -0.4488 -0.2913 0.04, -0.3701 -0.2913 0.04, 0.3701 -0.2913 0.04, 0.411 -0.2913 0.04, 0.4488 -0.2913 0.04, 0.4488 0.2913 0.04, 0.3701 0.2913 0.04, 0.411 0.2913 0.04
            ]
        }
        coordIndex [
            0,1,2,-1,0,2,3,-1,3,2,4,-1,3,4,5,-1,6,7,8,-1,8,7,9,-1,8,9,10,-1,10,9,11,-1,12,13,4,-1,14,15,8,-1,2,16,17,-1,10,18,19,-1,4,2,12,-1,12,2,17,-1,12,17,19,-1,19,17,14,-1,19,14,10,-1,10,14,8,-1,20,21,12,-1,12,21,13,-1,21,5,13,-1,13,5,4,-1,11,22,10,-1,10,22,18,-1,22,23,18,-1,18,23,19,-1,14,24,15,-1,15,24,25,-1,15,25,26,-1,26,6,15,-1,15,6,8,-1,1,27,2,-1,2,27,16,-1,28,17,29,-1,29,17,16,-1,29,16,27,-1,
        ]
    }
}