%TF.GenerationSoftware,KiCad,Pcbnew,10.0.1*%
%TF.CreationDate,2026-08-26T23:46:06-07:00*%
%TF.ProjectId,BILLEE_Rover_Control_Module_V1,42494c4c-4545-45f5-926f-7665725f436f,V1*%
%TF.SameCoordinates,Original*%
%TF.FileFunction,Soldermask,Bot*%
%TF.FilePolarity,Negative*%
%FSLAX46Y46*%
G04 Gerber Fmt 4.6, Leading zero omitted, Abs format (unit mm)*
G04 Created by KiCad (PCBNEW 10.0.1) date 2026-08-26 23:46:06*
%MOMM*%
%LPD*%
G01*
G04 APERTURE LIST*
G04 Aperture macros list*
%AMRoundRect*
0 Rectangle with rounded corners*
0 $1 Rounding radius*
0 $2 $3 $4 $5 $6 $7 $8 $9 X,Y pos of 4 corners*
0 Add a 4 corners polygon primitive as box body*
4,1,4,$2,$3,$4,$5,$6,$7,$8,$9,$2,$3,0*
0 Add four circle primitives for the rounded corners*
1,1,$1+$1,$2,$3*
1,1,$1+$1,$4,$5*
1,1,$1+$1,$6,$7*
1,1,$1+$1,$8,$9*
0 Add four rect primitives between the rounded corners*
20,1,$1+$1,$2,$3,$4,$5,0*
20,1,$1+$1,$4,$5,$6,$7,0*
20,1,$1+$1,$6,$7,$8,$9,0*
20,1,$1+$1,$8,$9,$2,$3,0*%
G04 Aperture macros list end*
%ADD10R,2.600000X1.800000*%
%ADD11O,2.600000X1.800000*%
%ADD12C,6.000000*%
%ADD13C,2.550000*%
%ADD14C,2.200000*%
%ADD15C,3.800000*%
%ADD16O,1.200000X2.200000*%
%ADD17C,0.700000*%
%ADD18O,1.100000X2.000000*%
%ADD19O,1.200000X1.800000*%
%ADD20R,2.000000X2.000000*%
%ADD21R,1.800000X2.600000*%
%ADD22O,1.800000X2.600000*%
%ADD23R,1.500000X1.500000*%
%ADD24C,1.500000*%
%ADD25C,0.900000*%
%ADD26C,8.600000*%
%ADD27R,1.700000X1.700000*%
%ADD28C,1.700000*%
%ADD29RoundRect,0.135000X-0.185000X0.135000X-0.185000X-0.135000X0.185000X-0.135000X0.185000X0.135000X0*%
%ADD30RoundRect,0.135000X0.185000X-0.135000X0.185000X0.135000X-0.185000X0.135000X-0.185000X-0.135000X0*%
%ADD31O,0.380000X1.450000*%
%ADD32RoundRect,0.135000X0.135000X0.185000X-0.135000X0.185000X-0.135000X-0.185000X0.135000X-0.185000X0*%
%ADD33RoundRect,0.135000X-0.135000X-0.185000X0.135000X-0.185000X0.135000X0.185000X-0.135000X0.185000X0*%
%ADD34O,1.742000X0.364000*%
G04 APERTURE END LIST*
D10*
%TO.C,D7*%
X246917188Y-97564968D03*
D11*
X246917188Y-100104968D03*
X246917188Y-102644968D03*
%TD*%
D12*
%TO.C,CN7*%
X169705000Y-66020000D03*
X180605000Y-66020000D03*
D13*
X184605000Y-56620000D03*
X165705000Y-56620000D03*
%TD*%
D14*
%TO.C,U16*%
X49900000Y-49000000D03*
X49900000Y-54000000D03*
%TD*%
D12*
%TO.C,CN1*%
X61755000Y-66020000D03*
X72655000Y-66020000D03*
D13*
X76655000Y-56620000D03*
X57755000Y-56620000D03*
%TD*%
D10*
%TO.C,D8*%
X226316588Y-97640568D03*
D11*
X226316588Y-100180568D03*
X226316588Y-102720568D03*
%TD*%
D15*
%TO.C,CN11*%
X216947000Y-57550000D03*
X224147000Y-57550000D03*
D16*
X227297000Y-51550000D03*
X213797000Y-51550000D03*
%TD*%
D17*
%TO.C,USB1*%
X75242000Y-118283500D03*
X81022000Y-118283500D03*
D18*
X73812000Y-117753500D03*
D19*
X73812000Y-121963500D03*
D18*
X82452000Y-117753500D03*
D19*
X82452000Y-121963500D03*
%TD*%
D20*
%TO.C,TP6*%
X103122000Y-85534000D03*
%TD*%
D15*
%TO.C,CN15*%
X200980000Y-108200000D03*
X193780000Y-108200000D03*
D16*
X190630000Y-114200000D03*
X204130000Y-114200000D03*
%TD*%
D20*
%TO.C,TP5*%
X73065000Y-84580000D03*
%TD*%
D15*
%TO.C,CN14*%
X221477000Y-108200000D03*
X214277000Y-108200000D03*
D16*
X211127000Y-114200000D03*
X224627000Y-114200000D03*
%TD*%
D15*
%TO.C,CN13*%
X242077000Y-108200000D03*
X234877000Y-108200000D03*
D16*
X231727000Y-114200000D03*
X245227000Y-114200000D03*
%TD*%
D21*
%TO.C,D11*%
X162040900Y-80031898D03*
D22*
X164580900Y-80031898D03*
X167120900Y-80031898D03*
%TD*%
D15*
%TO.C,CN5*%
X133315000Y-108200000D03*
X126115000Y-108200000D03*
D16*
X122965000Y-114200000D03*
X136465000Y-114200000D03*
%TD*%
D15*
%TO.C,CN12*%
X237568000Y-57550000D03*
X244768000Y-57550000D03*
D16*
X247918000Y-51550000D03*
X234418000Y-51550000D03*
%TD*%
D20*
%TO.C,TP4*%
X57280000Y-84930000D03*
%TD*%
D10*
%TO.C,D5*%
X212008400Y-67848000D03*
D11*
X212008400Y-65308000D03*
X212008400Y-62768000D03*
%TD*%
D15*
%TO.C,CN10*%
X196325000Y-57550000D03*
X203525000Y-57550000D03*
D16*
X206675000Y-51550000D03*
X193175000Y-51550000D03*
%TD*%
D23*
%TO.C,CN6*%
X102452000Y-122920000D03*
D24*
X102452000Y-120920000D03*
X100452000Y-122920000D03*
X100452000Y-120920000D03*
X98452000Y-122920000D03*
X98452000Y-120920000D03*
X96452000Y-122920000D03*
X96452000Y-120920000D03*
X94452000Y-122920000D03*
X94452000Y-120920000D03*
X92452000Y-122920000D03*
X92452000Y-120920000D03*
X90452000Y-122920000D03*
X90452000Y-120920000D03*
X88452000Y-122920000D03*
X88452000Y-120920000D03*
X86452000Y-122920000D03*
X86452000Y-120920000D03*
%TD*%
D25*
%TO.C,H3*%
X28915000Y-45220000D03*
X29859581Y-42939581D03*
X29859581Y-47500419D03*
X32140000Y-41995000D03*
D26*
X32140000Y-45220000D03*
D25*
X32140000Y-48445000D03*
X34420419Y-42939581D03*
X34420419Y-47500419D03*
X35365000Y-45220000D03*
%TD*%
D21*
%TO.C,D10*%
X136216000Y-80001500D03*
D22*
X138756000Y-80001500D03*
X141296000Y-80001500D03*
%TD*%
D15*
%TO.C,CN18*%
X183470000Y-108200000D03*
X176270000Y-108200000D03*
D16*
X173120000Y-114200000D03*
X186620000Y-114200000D03*
%TD*%
D10*
%TO.C,D4*%
X191485000Y-67860000D03*
D11*
X191485000Y-65320000D03*
X191485000Y-62780000D03*
%TD*%
D10*
%TO.C,D9*%
X205819988Y-97595368D03*
D11*
X205819988Y-100135368D03*
X205819988Y-102675368D03*
%TD*%
D25*
%TO.C,H1*%
X252365000Y-45220000D03*
X253309581Y-42939581D03*
X253309581Y-47500419D03*
X255590000Y-41995000D03*
D26*
X255590000Y-45220000D03*
D25*
X255590000Y-48445000D03*
X257870419Y-42939581D03*
X257870419Y-47500419D03*
X258815000Y-45220000D03*
%TD*%
D15*
%TO.C,CN17*%
X166720000Y-108200000D03*
X159520000Y-108200000D03*
D16*
X156370000Y-114200000D03*
X169870000Y-114200000D03*
%TD*%
D25*
%TO.C,H4*%
X28895419Y-119830429D03*
X29840000Y-117550010D03*
X29840000Y-122110848D03*
X32120419Y-116605429D03*
D26*
X32120419Y-119830429D03*
D25*
X32120419Y-123055429D03*
X34400838Y-117550010D03*
X34400838Y-122110848D03*
X35345419Y-119830429D03*
%TD*%
D27*
%TO.C,J1*%
X74576000Y-107458000D03*
D28*
X74576000Y-104918000D03*
X74576000Y-102378000D03*
%TD*%
D15*
%TO.C,CN4*%
X116865000Y-108200000D03*
X109665000Y-108200000D03*
D16*
X106515000Y-114200000D03*
X120015000Y-114200000D03*
%TD*%
D15*
%TO.C,CN2*%
X67875000Y-108175000D03*
X60675000Y-108175000D03*
D16*
X57525000Y-114175000D03*
X71025000Y-114175000D03*
%TD*%
D15*
%TO.C,CN16*%
X150160000Y-108200000D03*
X142960000Y-108200000D03*
D16*
X139810000Y-114200000D03*
X153310000Y-114200000D03*
%TD*%
D15*
%TO.C,CN3*%
X51265000Y-108200000D03*
X44065000Y-108200000D03*
D16*
X40915000Y-114200000D03*
X54415000Y-114200000D03*
%TD*%
D10*
%TO.C,D6*%
X232728000Y-67905600D03*
D11*
X232728000Y-65365600D03*
X232728000Y-62825600D03*
%TD*%
D12*
%TO.C,CN9*%
X133722000Y-66020000D03*
X144622000Y-66020000D03*
D13*
X148622000Y-56620000D03*
X129722000Y-56620000D03*
%TD*%
D25*
%TO.C,H2*%
X252349090Y-119816170D03*
X253293671Y-117535751D03*
X253293671Y-122096589D03*
X255574090Y-116591170D03*
D26*
X255574090Y-119816170D03*
D25*
X255574090Y-123041170D03*
X257854509Y-117535751D03*
X257854509Y-122096589D03*
X258799090Y-119816170D03*
%TD*%
D12*
%TO.C,CN8*%
X97738000Y-66020000D03*
X108638000Y-66020000D03*
D13*
X112638000Y-56620000D03*
X93738000Y-56620000D03*
%TD*%
D29*
%TO.C,R58*%
X79503600Y-119038400D03*
X79503600Y-120058400D03*
%TD*%
D30*
%TO.C,R60*%
X116943200Y-73881200D03*
X116943200Y-72861200D03*
%TD*%
D31*
%TO.C,U13*%
X125191100Y-77833300D03*
X124531100Y-77833300D03*
X123881100Y-77833300D03*
X123231100Y-77833300D03*
X123231100Y-73433300D03*
X123881100Y-73433300D03*
X124531100Y-73433300D03*
X125191100Y-73433300D03*
%TD*%
D32*
%TO.C,R48*%
X118421100Y-71833300D03*
X117401100Y-71833300D03*
%TD*%
%TO.C,R50*%
X118521100Y-79333300D03*
X117501100Y-79333300D03*
%TD*%
D30*
%TO.C,R51*%
X126336100Y-76323300D03*
X126336100Y-75303300D03*
%TD*%
D33*
%TO.C,R54*%
X119501100Y-79333300D03*
X120521100Y-79333300D03*
%TD*%
D34*
%TO.C,U15*%
X92534000Y-108102000D03*
X92534000Y-107452000D03*
X92534000Y-106802000D03*
X92534000Y-106152000D03*
X92534000Y-105492000D03*
X92534000Y-104842000D03*
X92534000Y-104192000D03*
X92534000Y-103542000D03*
X92534000Y-102892000D03*
X92534000Y-102242000D03*
X98274000Y-102242000D03*
X98274000Y-102892000D03*
X98274000Y-103542000D03*
X98274000Y-104192000D03*
X98274000Y-104842000D03*
X98274000Y-105492000D03*
X98274000Y-106152000D03*
X98274000Y-106802000D03*
X98274000Y-107452000D03*
X98274000Y-108102000D03*
%TD*%
D31*
%TO.C,U14*%
X119891100Y-77833300D03*
X119231100Y-77833300D03*
X118581100Y-77833300D03*
X117931100Y-77833300D03*
X117931100Y-73433300D03*
X118581100Y-73433300D03*
X119231100Y-73433300D03*
X119891100Y-73433300D03*
%TD*%
D33*
%TO.C,R56*%
X119391100Y-71833300D03*
X120411100Y-71833300D03*
%TD*%
D29*
%TO.C,R59*%
X122136100Y-75213300D03*
X122136100Y-76233300D03*
%TD*%
D32*
%TO.C,R47*%
X123756100Y-71923300D03*
X122736100Y-71923300D03*
%TD*%
%TO.C,R49*%
X123746100Y-79323300D03*
X122726100Y-79323300D03*
%TD*%
D33*
%TO.C,R53*%
X124726100Y-79323300D03*
X125746100Y-79323300D03*
%TD*%
D29*
%TO.C,R57*%
X76503600Y-119028400D03*
X76503600Y-120048400D03*
%TD*%
D33*
%TO.C,R55*%
X124736100Y-71923300D03*
X125756100Y-71923300D03*
%TD*%
D29*
%TO.C,R52*%
X120905600Y-77331600D03*
X120905600Y-78351600D03*
%TD*%
M02*
