%TF.GenerationSoftware,KiCad,Pcbnew,10.0.1*%
%TF.CreationDate,2026-08-20T02:29:07-07:00*%
%TF.ProjectId,BILLEE_Rover_Control_Module_V1,42494c4c-4545-45f5-926f-7665725f436f,V1*%
%TF.SameCoordinates,Original*%
%TF.FileFunction,Paste,Bot*%
%TF.FilePolarity,Positive*%
%FSLAX46Y46*%
G04 Gerber Fmt 4.6, Leading zero omitted, Abs format (unit mm)*
G04 Created by KiCad (PCBNEW 10.0.1) date 2026-08-20 02:29:07*
%MOMM*%
%LPD*%
G01*
G04 APERTURE LIST*
G04 Aperture macros list*
%AMRoundRect*
0 Rectangle with rounded corners*
0 $1 Rounding radius*
0 $2 $3 $4 $5 $6 $7 $8 $9 X,Y pos of 4 corners*
0 Add a 4 corners polygon primitive as box body*
4,1,4,$2,$3,$4,$5,$6,$7,$8,$9,$2,$3,0*
0 Add four circle primitives for the rounded corners*
1,1,$1+$1,$2,$3*
1,1,$1+$1,$4,$5*
1,1,$1+$1,$6,$7*
1,1,$1+$1,$8,$9*
0 Add four rect primitives between the rounded corners*
20,1,$1+$1,$2,$3,$4,$5,0*
20,1,$1+$1,$4,$5,$6,$7,0*
20,1,$1+$1,$6,$7,$8,$9,0*
20,1,$1+$1,$8,$9,$2,$3,0*%
G04 Aperture macros list end*
%ADD10RoundRect,0.135000X-0.185000X0.135000X-0.185000X-0.135000X0.185000X-0.135000X0.185000X0.135000X0*%
%ADD11RoundRect,0.135000X0.185000X-0.135000X0.185000X0.135000X-0.185000X0.135000X-0.185000X-0.135000X0*%
%ADD12O,0.380000X1.450000*%
%ADD13RoundRect,0.135000X0.135000X0.185000X-0.135000X0.185000X-0.135000X-0.185000X0.135000X-0.185000X0*%
%ADD14RoundRect,0.135000X-0.135000X-0.185000X0.135000X-0.185000X0.135000X0.185000X-0.135000X0.185000X0*%
%ADD15O,1.742000X0.364000*%
G04 APERTURE END LIST*
D10*
%TO.C,R58*%
X79503600Y-119038400D03*
X79503600Y-120058400D03*
%TD*%
D11*
%TO.C,R60*%
X116943200Y-73881200D03*
X116943200Y-72861200D03*
%TD*%
D12*
%TO.C,U13*%
X125191100Y-77833300D03*
X124531100Y-77833300D03*
X123881100Y-77833300D03*
X123231100Y-77833300D03*
X123231100Y-73433300D03*
X123881100Y-73433300D03*
X124531100Y-73433300D03*
X125191100Y-73433300D03*
%TD*%
D13*
%TO.C,R48*%
X118421100Y-71833300D03*
X117401100Y-71833300D03*
%TD*%
%TO.C,R50*%
X118521100Y-79333300D03*
X117501100Y-79333300D03*
%TD*%
D11*
%TO.C,R51*%
X126336100Y-76323300D03*
X126336100Y-75303300D03*
%TD*%
D14*
%TO.C,R54*%
X119501100Y-79333300D03*
X120521100Y-79333300D03*
%TD*%
D15*
%TO.C,U15*%
X92534000Y-108102000D03*
X92534000Y-107452000D03*
X92534000Y-106802000D03*
X92534000Y-106152000D03*
X92534000Y-105492000D03*
X92534000Y-104842000D03*
X92534000Y-104192000D03*
X92534000Y-103542000D03*
X92534000Y-102892000D03*
X92534000Y-102242000D03*
X98274000Y-102242000D03*
X98274000Y-102892000D03*
X98274000Y-103542000D03*
X98274000Y-104192000D03*
X98274000Y-104842000D03*
X98274000Y-105492000D03*
X98274000Y-106152000D03*
X98274000Y-106802000D03*
X98274000Y-107452000D03*
X98274000Y-108102000D03*
%TD*%
D12*
%TO.C,U14*%
X119891100Y-77833300D03*
X119231100Y-77833300D03*
X118581100Y-77833300D03*
X117931100Y-77833300D03*
X117931100Y-73433300D03*
X118581100Y-73433300D03*
X119231100Y-73433300D03*
X119891100Y-73433300D03*
%TD*%
D14*
%TO.C,R56*%
X119391100Y-71833300D03*
X120411100Y-71833300D03*
%TD*%
D10*
%TO.C,R59*%
X122136100Y-75213300D03*
X122136100Y-76233300D03*
%TD*%
D13*
%TO.C,R47*%
X123756100Y-71923300D03*
X122736100Y-71923300D03*
%TD*%
%TO.C,R49*%
X123746100Y-79323300D03*
X122726100Y-79323300D03*
%TD*%
D14*
%TO.C,R53*%
X124726100Y-79323300D03*
X125746100Y-79323300D03*
%TD*%
D10*
%TO.C,R57*%
X76503600Y-119028400D03*
X76503600Y-120048400D03*
%TD*%
D14*
%TO.C,R55*%
X124736100Y-71923300D03*
X125756100Y-71923300D03*
%TD*%
D10*
%TO.C,R52*%
X120905600Y-77331600D03*
X120905600Y-78351600D03*
%TD*%
M02*
