M48
; DRILL file KiCad 10.0.1 date 2026-08-20T02:29:07
; FORMAT={-:-/ absolute / inch / decimal}
; #@! TF.CreationDate,2026-08-20T02:29:07-07:00
; #@! TF.GenerationSoftware,Kicad,Pcbnew,10.0.1
; #@! TF.FileFunction,Plated,1,4,PTH
FMAT,2
INCH
; #@! TA.AperFunction,Plated,PTH,ViaDrill
T1C0.0039
; #@! TA.AperFunction,Plated,PTH,ViaDrill
T2C0.0059
; #@! TA.AperFunction,Plated,PTH,ViaDrill
T3C0.0118
; #@! TA.AperFunction,Plated,PTH,ComponentDrill
T4C0.0236
; #@! TA.AperFunction,Plated,PTH,ComponentDrill
T5C0.0236
; #@! TA.AperFunction,Plated,PTH,ComponentDrill
T6C0.0276
; #@! TA.AperFunction,Plated,PTH,ComponentDrill
T7C0.0354
; #@! TA.AperFunction,Plated,PTH,ComponentDrill
T8C0.0394
; #@! TA.AperFunction,Plated,PTH,ComponentDrill
T9C0.0472
; #@! TA.AperFunction,Plated,PTH,ComponentDrill
T10C0.0551
; #@! TA.AperFunction,Plated,PTH,ComponentDrill
T11C0.0669
; #@! TA.AperFunction,Plated,PTH,ComponentDrill
T12C0.1142
; #@! TA.AperFunction,Plated,PTH,ComponentDrill
T13C0.1496
; #@! TA.AperFunction,Plated,PTH,ComponentDrill
T14C0.1693
%
G90
G05
T1
X2.1614Y-2.3228
X2.4621Y-3.5886
X2.476Y-3.2606
X2.5001Y-3.5476
X2.5001Y-3.5673
X2.5001Y-3.5869
X2.5001Y-3.6066
X2.5353Y-3.602
X2.5358Y-3.578
X2.5359Y-3.5533
X2.5553Y-3.602
X2.5558Y-3.578
X2.5559Y-3.5533
X2.5753Y-3.602
X2.5758Y-3.578
X2.5759Y-3.5533
X2.5953Y-3.602
X2.5958Y-3.578
X2.5959Y-3.5533
X2.6153Y-3.602
X2.6158Y-3.578
X2.6159Y-3.5533
X2.6353Y-3.602
X2.6358Y-3.578
X2.6359Y-3.5533
X2.6453Y-3.5198
X2.6453Y-3.6317
X2.6553Y-3.602
X2.6558Y-3.578
X2.6559Y-3.5533
X2.665Y-3.5198
X2.6753Y-3.602
X2.6758Y-3.578
X2.6759Y-3.5533
X2.6847Y-3.5198
X2.6953Y-3.602
X2.6958Y-3.578
X2.6959Y-3.5533
X2.73Y-3.5476
X2.73Y-3.5673
X2.73Y-3.5869
X2.73Y-3.6066
X2.7681Y-3.5266
X2.7701Y-3.5661
X2.7881Y-3.4846
X2.9341Y-3.3906
X2.984Y-3.485
X3.0091Y-4.5021
X3.012Y-4.6862
X3.0161Y-3.5366
X3.0533Y-3.5359
X3.0533Y-3.5556
X3.0533Y-3.5753
X3.0533Y-3.595
X3.0577Y-3.2882
X3.0581Y-3.3666
X3.0769Y-4.2093
X3.077Y-4.1626
X3.0778Y-4.0445
X3.0778Y-4.1232
X3.0785Y-4.0839
X3.0885Y-3.5903
X3.089Y-3.5663
X3.0891Y-3.5416
X3.1085Y-3.5903
X3.109Y-3.5663
X3.1091Y-3.5416
X3.1285Y-3.5903
X3.129Y-3.5663
X3.1291Y-3.5416
X3.13Y-4.6862
X3.1485Y-3.5903
X3.149Y-3.5663
X3.1491Y-3.5416
X3.1601Y-3.9716
X3.1601Y-3.9873
X3.1601Y-4.0031
X3.1601Y-4.0188
X3.1601Y-4.0345
X3.1601Y-4.0503
X3.1601Y-4.066
X3.1601Y-4.1133
X3.1601Y-4.129
X3.1685Y-3.5903
X3.169Y-3.5663
X3.1691Y-3.5416
X3.1701Y-4.7486
X3.1705Y-4.4391
X3.1705Y-4.5021
X3.1885Y-3.5903
X3.189Y-3.5663
X3.1891Y-3.5416
X3.1986Y-3.5098
X3.2033Y-3.7039
X3.2065Y-3.9412
X3.2065Y-4.2223
X3.2085Y-3.5903
X3.209Y-3.5663
X3.2091Y-3.5416
X3.2183Y-3.5098
X3.2223Y-3.9412
X3.2285Y-3.5903
X3.229Y-3.5663
X3.2291Y-3.5416
X3.2324Y-3.8334
X3.238Y-3.5098
X3.238Y-3.9412
X3.2485Y-3.5903
X3.249Y-3.5663
X3.2491Y-3.5416
X3.2624Y-3.6543
X3.2624Y-3.6819
X3.2695Y-3.9412
X3.274Y-3.7942
X3.2832Y-3.5359
X3.2832Y-3.5556
X3.2832Y-3.5753
X3.2832Y-3.595
X3.2853Y-3.9412
X3.3205Y-3.8383
X3.3241Y-3.5146
X3.3372Y-3.7016
X3.3461Y-3.4646
X3.364Y-3.9412
X3.3701Y-3.8071
X3.3798Y-3.9412
X3.3955Y-3.9412
X3.4055Y-4.629
X3.4061Y-3.2806
X3.4251Y-4.2943
X3.442Y-3.9873
X3.442Y-4.0031
X3.442Y-4.0188
X3.442Y-4.0503
X3.442Y-4.066
X3.442Y-4.0818
X3.442Y-4.0975
X3.442Y-4.129
X3.442Y-4.1448
X3.442Y-4.1605
X3.442Y-4.1763
X3.4437Y-3.926
X3.4567Y-3.874
X3.4801Y-3.9786
X3.4881Y-4.2887
X3.5041Y-4.7086
X3.516Y-3.98
X3.5398Y-4.6186
X3.575Y-4.0005
X3.575Y-4.2839
X3.5807Y-4.6186
X3.6121Y-4.4431
X3.6841Y-4.5066
X3.6843Y-4.0892
X3.6861Y-4.5586
X3.687Y-4.4088
X3.7201Y-4.0026
X3.7228Y-3.5322
X3.7228Y-3.5519
X3.7228Y-3.5716
X3.7228Y-3.5913
X3.7318Y-4.1334
X3.732Y-4.337
X3.7321Y-3.2906
X3.7341Y-4.0826
X3.735Y-3.9786
X3.7361Y-4.2346
X3.7361Y-4.3126
X3.7561Y-4.1606
X3.7581Y-3.5866
X3.7585Y-3.5626
X3.7586Y-3.5379
X3.7781Y-3.5866
X3.7785Y-3.5626
X3.7786Y-3.5379
X3.7881Y-4.0306
X3.7901Y-4.2426
X3.7981Y-3.5866
X3.7985Y-3.5626
X3.7986Y-3.5379
X3.8181Y-3.5866
X3.8185Y-3.5626
X3.8186Y-3.5379
X3.8381Y-3.5866
X3.8385Y-3.5626
X3.8386Y-3.5379
X3.8581Y-3.5866
X3.8585Y-3.5626
X3.867Y-3.5053
X3.8781Y-3.5866
X3.8785Y-3.5626
X3.8867Y-3.5053
X3.8981Y-3.5866
X3.8985Y-3.5626
X3.9064Y-3.5053
X3.9181Y-3.5866
X3.9185Y-3.5626
X3.9316Y-4.0811
X3.9461Y-4.0046
X3.95Y-3.979
X3.9521Y-4.2346
X3.9523Y-4.1839
X3.9581Y-4.3106
X3.9912Y-3.1112
X3.9921Y-3.5326
X4.0201Y-3.4506
X4.0221Y-3.4886
X4.0316Y-4.2826
X4.0321Y-4.0326
X4.0321Y-4.1166
X4.0321Y-4.1946
X4.0601Y-3.2426
X4.0601Y-3.2846
X4.66Y-2.824
X4.668Y-3.124
X4.694Y-2.892
X4.706Y-3.128
X4.818Y-3.08
X4.872Y-3.122
X4.878Y-2.89
X4.902Y-3.064
X4.9028Y-2.8911
X4.9098Y-3.1222
X4.912Y-2.83
X4.933Y-3.0013
X5.2056Y-3.5591
X5.352Y-3.904
X5.3524Y-3.9286
X5.3534Y-3.9519
X5.5778Y-3.881
X5.6361Y-3.8181
X5.637Y-3.879
X5.7061Y-3.2791
X5.7061Y-3.5165
X5.7361Y-3.823
X5.7767Y-3.2784
X5.7781Y-3.3366
X5.7961Y-3.3372
X5.7961Y-3.4191
X5.7961Y-3.501
X5.8661Y-3.823
X5.9961Y-3.3197
X5.9961Y-3.5008
X5.9961Y-3.8249
X6.0217Y-3.3197
X6.022Y-3.5
X6.048Y-3.318
X6.0732Y-3.3197
X6.0732Y-3.5008
X6.1901Y-3.5766
X6.3614Y-3.9394
X6.362Y-3.962
X6.364Y-3.916
X6.462Y-2.446
X6.619Y-3.898
X6.7161Y-3.3101
X6.7161Y-3.5507
X6.7493Y-3.8535
X6.7854Y-3.3025
X6.7861Y-3.3566
X6.806Y-3.342
X6.8061Y-3.4406
X6.8061Y-3.5225
X6.8814Y-3.8524
X7.0156Y-3.8517
X7.476Y-3.987
X7.4764Y-4.0787
X7.538Y-4.022
X7.54Y-3.998
X7.564Y-4.042
X7.6407Y-2.4969
X7.6407Y-2.5404
X7.711Y-2.3869
X7.7261Y-2.7126
X7.7396Y-2.4772
X7.7593Y-2.4772
X7.7593Y-2.5591
X7.7626Y-3.9502
X7.763Y-3.974
X7.801Y-2.4152
X7.8425Y-4.126
X7.8793Y-2.5638
X7.8821Y-3.8726
X7.8827Y-3.9549
X7.9021Y-4.0366
X8.0012Y-3.9736
X8.0012Y-4.0171
X8.101Y-2.469
X8.1037Y-2.4929
X8.1037Y-2.5402
X8.1677Y-2.4671
X8.2812Y-4.0486
X8.282Y-3.985
X8.344Y-4.046
X8.345Y-2.8878
X8.3451Y-4.0229
X8.346Y-2.81
X8.346Y-2.836
X8.4488Y-2.4964
X8.4488Y-2.5399
X8.5197Y-2.3937
X8.5261Y-2.8878
X8.5481Y-2.4746
X8.5673Y-2.4767
X8.5673Y-2.5586
X8.5673Y-2.6426
X8.5696Y-3.952
X8.57Y-3.976
X8.609Y-2.4147
X8.6873Y-2.5633
X8.689Y-4.0276
X8.6896Y-3.9567
X8.6901Y-3.8726
X8.7101Y-4.0386
X8.7379Y-4.1134
X8.8081Y-3.9754
X8.8081Y-4.0189
X8.9117Y-2.5397
X8.913Y-2.469
X8.913Y-2.492
X8.9757Y-2.4667
X9.092Y-3.985
X9.0922Y-4.0457
X9.156Y-4.02
X9.156Y-4.042
X9.1562Y-3.9963
X9.2645Y-2.4986
X9.2645Y-2.5421
X9.3228Y-2.4134
X9.3641Y-2.4726
X9.38Y-3.972
X9.3806Y-3.949
X9.383Y-2.5609
X9.383Y-2.6427
X9.4247Y-2.417
X9.4589Y-4.0976
X9.5001Y-3.8726
X9.5007Y-3.9537
X9.5007Y-4.0356
X9.5031Y-2.5656
X9.5201Y-4.0326
X9.5489Y-4.1104
X9.6192Y-3.9724
X9.6192Y-4.0159
X9.727Y-2.471
X9.7275Y-2.542
X9.729Y-2.495
X9.7915Y-2.4689
T2
X2.0827Y-3.4341
X2.0956Y-3.3706
X2.1614Y-2.363
X2.1655Y-3.432
X2.1655Y-3.4576
X2.1655Y-3.4836
X2.3392Y-3.2106
X2.3466Y-3.432
X2.3466Y-3.4836
X2.3466Y-3.5092
X2.348Y-3.312
X2.3992Y-3.3386
X2.3994Y-3.2992
X2.4004Y-3.4213
X2.4217Y-3.5862
X2.5039Y-3.1441
X2.5039Y-3.1677
X2.7283Y-3.0732
X2.787Y-3.8878
X2.789Y-3.3311
X2.789Y-3.4079
X2.789Y-3.4445
X2.789Y-3.7559
X2.8079Y-3.5256
X2.8079Y-3.5661
X2.8087Y-3.6693
X2.8941Y-3.4134
X2.96Y-3.2902
X2.9604Y-3.3295
X2.9604Y-3.3709
X2.9766Y-3.5362
X2.9848Y-3.423
X3.2441Y-4.1146
X3.2461Y-4.1386
X3.2598Y-3.249
X3.2701Y-4.1406
X3.3081Y-4.0246
X3.3234Y-3.5531
X3.3361Y-4.0246
X3.3361Y-4.0526
X3.3431Y-3.298
X3.3451Y-3.4256
X3.3601Y-4.0246
X3.3601Y-4.0526
X3.3601Y-4.0826
X3.4061Y-3.4791
X3.483Y-3.3186
X3.5515Y-3.3903
X3.5908Y-3.3903
X3.5967Y-3.5041
X3.5967Y-3.5671
X3.63Y-3.3911
X3.6308Y-3.3517
X3.7843Y-3.7218
X4.0328Y-3.575
X4.0328Y-3.6155
X4.0591Y-3.4895
X4.0603Y-3.4502
X4.065Y-3.1486
X4.0961Y-3.6826
X4.2361Y-3.6826
X7.4021Y-4.3026
X7.8001Y-2.4766
X7.8437Y-4.0306
X8.6062Y-2.4766
X8.6507Y-4.0346
X9.4241Y-2.4806
X9.4617Y-4.0346
T3
X1.2598Y-2.1063
X1.2598Y-2.4213
X1.2598Y-2.7362
X1.2598Y-3.0512
X1.2598Y-3.3661
X1.2598Y-3.6811
X1.2598Y-3.9961
X1.2598Y-4.311
X1.2598Y-4.9409
X1.5709Y-1.752
X1.5709Y-2.0669
X1.5709Y-2.3819
X1.5709Y-2.6969
X1.5709Y-3.0118
X1.5709Y-3.3268
X1.5709Y-3.6417
X1.5709Y-3.9567
X1.5709Y-4.2717
X1.5709Y-4.5866
X1.5709Y-4.9016
X1.8858Y-1.752
X2.2008Y-1.752
X2.5157Y-1.752
X2.8307Y-1.752
X3.1457Y-1.752
X3.4606Y-1.752
X3.7756Y-1.752
X4.0906Y-1.752
X4.2235Y-4.7166
X4.4055Y-1.752
X4.5385Y-4.7166
X4.7205Y-1.752
X4.8534Y-4.7166
X5.0354Y-1.752
X5.1684Y-4.7166
X5.3504Y-1.752
X5.4833Y-4.7166
X5.6654Y-1.752
X5.7983Y-4.7166
X5.9803Y-1.752
X6.1133Y-4.7166
X6.2953Y-1.752
X6.4282Y-4.7166
X6.6102Y-1.752
X6.7432Y-4.7166
X6.9252Y-1.752
X7.0581Y-4.7166
X7.2402Y-1.752
X7.3731Y-4.7166
X7.5551Y-1.752
X7.6881Y-4.7166
X7.8701Y-1.752
X8.0493Y-4.7226
X8.185Y-1.752
X8.185Y-4.2717
X8.3642Y-4.7226
X8.5Y-1.752
X8.6792Y-4.7226
X8.815Y-1.752
X8.815Y-4.2717
X8.9941Y-4.7226
X9.1299Y-1.752
X9.1299Y-4.2717
X9.3091Y-4.7226
X9.4449Y-1.752
X9.6241Y-4.7226
X9.7598Y-1.752
X10.0787Y-2.1063
X10.0787Y-2.4213
X10.0787Y-2.7362
X10.0787Y-3.0512
X10.0787Y-3.3661
X10.0787Y-3.6811
X10.0787Y-3.9961
X10.0787Y-4.311
X10.0787Y-4.9409
T5
X1.1376Y-4.7177
X1.1384Y-1.7803
X1.1748Y-4.628
X1.1748Y-4.8075
X1.1756Y-1.6905
X1.1756Y-1.8701
X1.2646Y-4.5908
X1.2646Y-4.8447
X1.2654Y-1.6533
X1.2654Y-1.9073
X1.3544Y-4.628
X1.3544Y-4.8075
X1.3551Y-1.6905
X1.3551Y-1.8701
X1.3916Y-4.7177
X1.3923Y-1.7803
X9.935Y-4.7172
X9.9356Y-1.7803
X9.9722Y-4.6274
X9.9722Y-4.807
X9.9728Y-1.6905
X9.9728Y-1.8701
X10.062Y-4.5902
X10.062Y-4.8441
X10.0626Y-1.6533
X10.0626Y-1.9073
X10.1518Y-4.6274
X10.1518Y-4.807
X10.1524Y-1.6905
X10.1524Y-1.8701
X10.1889Y-4.7172
X10.1896Y-1.7803
T6
X2.9623Y-4.6568
X3.1898Y-4.6568
T7
X3.4036Y-4.7606
X3.4036Y-4.8394
X3.4824Y-4.7606
X3.4824Y-4.8394
X3.5611Y-4.7606
X3.5611Y-4.8394
X3.6398Y-4.7606
X3.6398Y-4.8394
X3.7186Y-4.7606
X3.7186Y-4.8394
X3.7973Y-4.7606
X3.7973Y-4.8394
X3.8761Y-4.7606
X3.8761Y-4.8394
X3.9548Y-4.7606
X3.9548Y-4.8394
X4.0335Y-4.7606
X4.0335Y-4.8394
T8
X2.2551Y-3.3437
X2.8766Y-3.3299
X2.9361Y-4.0306
X2.9361Y-4.1306
X2.9361Y-4.2306
X4.0599Y-3.3675
T9
X5.3628Y-3.1497
X5.4628Y-3.1497
X5.5628Y-3.1497
X6.3796Y-3.1509
X6.4796Y-3.1509
X6.5796Y-3.1509
X7.5388Y-2.4717
X7.5388Y-2.5717
X7.5388Y-2.6717
X8.1031Y-3.8423
X8.1031Y-3.9423
X8.1031Y-4.0423
X8.3468Y-2.4712
X8.3468Y-2.5712
X8.3468Y-2.6712
X8.9101Y-3.8441
X8.9101Y-3.9441
X8.9101Y-4.0441
X9.1625Y-2.4734
X9.1625Y-2.5734
X9.1625Y-2.6734
X9.7211Y-3.8411
X9.7211Y-3.9411
X9.7211Y-4.0411
T10
X1.9646Y-1.9291
X1.9646Y-2.126
T12
X1.7348Y-4.2598
X2.0183Y-4.2598
X2.3888Y-4.2589
X2.6722Y-4.2589
X4.3175Y-4.2598
X4.601Y-4.2598
X4.9652Y-4.2598
X5.2486Y-4.2598
X5.6283Y-4.2598
X5.9118Y-4.2598
X6.2803Y-4.2598
X6.5638Y-4.2598
X6.9398Y-4.2598
X7.2232Y-4.2598
X7.6291Y-4.2598
X7.7293Y-2.2657
X7.9126Y-4.2598
X8.0128Y-2.2657
X8.4361Y-4.2598
X8.5412Y-2.2657
X8.7196Y-4.2598
X8.8247Y-2.2657
X9.2471Y-4.2598
X9.3531Y-2.2657
X9.5306Y-4.2598
X9.6365Y-2.2657
T13
X2.4313Y-2.5992
X2.8604Y-2.5992
X3.848Y-2.5992
X4.2771Y-2.5992
X5.2646Y-2.5992
X5.6938Y-2.5992
X6.6813Y-2.5992
X7.1104Y-2.5992
T14
X1.2646Y-4.7177
X1.2654Y-1.7803
X10.062Y-4.7172
X10.0626Y-1.7803
T4
G00X1.6108Y-4.5157
M15
G01X1.6108Y-4.4764
M16
G05
G00X2.1423Y-4.5157
M15
G01X2.1423Y-4.4764
M16
G05
G00X2.2648Y-4.5148
M15
G01X2.2648Y-4.4754
M16
G05
G00X2.7963Y-4.5148
M15
G01X2.7963Y-4.4754
M16
G05
G00X2.906Y-4.6182
M15
G01X2.906Y-4.6537
M16
G05
G00X2.906Y-4.7899
M15
G01X2.906Y-4.8135
M16
G05
G00X3.2461Y-4.6182
M15
G01X3.2461Y-4.6537
M16
G05
G00X3.2461Y-4.7899
M15
G01X3.2461Y-4.8135
M16
G05
G00X4.1935Y-4.5157
M15
G01X4.1935Y-4.4764
M16
G05
G00X4.725Y-4.5157
M15
G01X4.725Y-4.4764
M16
G05
G00X4.8411Y-4.5157
M15
G01X4.8411Y-4.4764
M16
G05
G00X5.3726Y-4.5157
M15
G01X5.3726Y-4.4764
M16
G05
G00X5.5043Y-4.5157
M15
G01X5.5043Y-4.4764
M16
G05
G00X6.0358Y-4.5157
M15
G01X6.0358Y-4.4764
M16
G05
G00X6.1563Y-4.5157
M15
G01X6.1563Y-4.4764
M16
G05
G00X6.6878Y-4.5157
M15
G01X6.6878Y-4.4764
M16
G05
G00X6.8157Y-4.5157
M15
G01X6.8157Y-4.4764
M16
G05
G00X7.3472Y-4.5157
M15
G01X7.3472Y-4.4764
M16
G05
G00X7.5051Y-4.5157
M15
G01X7.5051Y-4.4764
M16
G05
G00X7.6053Y-2.0098
M15
G01X7.6053Y-2.0492
M16
G05
G00X8.0366Y-4.5157
M15
G01X8.0366Y-4.4764
M16
G05
G00X8.1368Y-2.0098
M15
G01X8.1368Y-2.0492
M16
G05
G00X8.3121Y-4.5157
M15
G01X8.3121Y-4.4764
M16
G05
G00X8.4172Y-2.0098
M15
G01X8.4172Y-2.0492
M16
G05
G00X8.8436Y-4.5157
M15
G01X8.8436Y-4.4764
M16
G05
G00X8.9487Y-2.0098
M15
G01X8.9487Y-2.0492
M16
G05
G00X9.1231Y-4.5157
M15
G01X9.1231Y-4.4764
M16
G05
G00X9.2291Y-2.0098
M15
G01X9.2291Y-2.0492
M16
G05
G00X9.6546Y-4.5157
M15
G01X9.6546Y-4.4764
M16
G05
G00X9.7606Y-2.0098
M15
G01X9.7606Y-2.0492
M16
G05
T11
G00X2.2738Y-2.2291
M15
G01X2.2738Y-2.2291
M16
G05
G00X3.0179Y-2.2291
M15
G01X3.0179Y-2.2291
M16
G05
G00X3.6905Y-2.2291
M15
G01X3.6905Y-2.2291
M16
G05
G00X4.4346Y-2.2291
M15
G01X4.4346Y-2.2291
M16
G05
G00X5.1072Y-2.2291
M15
G01X5.1072Y-2.2291
M16
G05
G00X5.8513Y-2.2291
M15
G01X5.8513Y-2.2291
M16
G05
G00X6.5238Y-2.2291
M15
G01X6.5238Y-2.2291
M16
G05
G00X7.2679Y-2.2291
M15
G01X7.2679Y-2.2291
M16
G05
M30
